<?xml version="1.0" encoding="UTF-8"?>
<!DOCTYPE svg PUBLIC "-//W3C//DTD SVG 1.1//EN" "http://www.w3.org/Graphics/SVG/1.1/DTD/svg11.dtd">
<!-- Creator: CorelDRAW -->
<svg xmlns="http://www.w3.org/2000/svg" xml:space="preserve" width="311.354mm" height="295.493mm" version="1.1" style="shape-rendering:geometricPrecision; text-rendering:geometricPrecision; image-rendering:optimizeQuality; fill-rule:evenodd; clip-rule:evenodd"
viewBox="0 0 31135.42 29549.3"
 xmlns:xlink="http://www.w3.org/1999/xlink"
 xmlns:xodm="http://www.corel.com/coreldraw/odm/2003">
 <defs>
  <style type="text/css">
   <![CDATA[
    .fil0 {fill:#003399}
    .fil1 {fill:#003399;fill-rule:nonzero}
   ]]>
  </style>
 </defs>
 <g id="Layer_x0020_1">
  <metadata id="CorelCorpID_0Corel-Layer"/>
  <path class="fil0" d="M15520.63 -0.01c7344.51,0 13335.11,5990.33 13335.11,13334.9 0,7344.77 -5990.6,13335.11 -13335.11,13335.11 -7344.51,0 -13334.88,-5990.34 -13334.88,-13335.11 0,-7344.57 5990.37,-13334.9 13334.88,-13334.9zm0 1605.51c6460.44,0 11729.48,5269.05 11729.48,11729.39 0,6460.56 -5269.04,11729.6 -11729.48,11729.6 -6459.98,0 -11729.01,-5269.04 -11729.01,-11729.6 0,-6460.34 5269.03,-11729.39 11729.01,-11729.39z"/>
  <polygon class="fil0" points="14945.68,24205.27 14945.68,20875.37 16109.03,20875.37 16109.03,24205.27 "/>
  <polygon class="fil0" points="22975.86,12852.03 26305.27,12852.03 26305.27,14015.65 22975.86,14015.65 "/>
  <path class="fil0" d="M23064.63 11344.6c-100.42,30.11 -196.58,20.58 -287.81,-28.34 -91.01,-49.36 -151.98,-124.41 -181.35,-224.92 -29.58,-101.19 -18.61,-197.26 32.95,-288.25 51.11,-91.66 125.98,-152.32 225.73,-182.2 99.08,-29.67 194.34,-19.93 286.03,28.78 91,48.25 151.53,122.86 180.66,224.03 29.6,100.52 19.06,197.05 -31.38,288.91 -50.66,91.44 -125.75,152.32 -224.83,181.99z"/>
  <path class="fil0" d="M22403.81 9632.83c-58.05,46.04 -173.94,118.88 -347.66,219.62 -187.62,109.8 -305.52,167.15 -352.83,174.44 -38.1,4.44 -69.48,-7.96 -92.12,-36.3 -9.41,-11.74 -23.53,-34.09 -41.92,-65.97 -65,-108.49 -286.25,-401.61 -665.3,-878.48 -82.04,-103.61 -204.66,-259.24 -366.27,-465.58 -161.17,-205.67 -282.66,-360.41 -364.25,-462.7 -35.64,-44.94 -33.64,-82.35 5.82,-113.79 151.08,-120.22 384.43,-292.02 701.17,-516.28 316.73,-223.16 550.53,-395.62 702.06,-515.84 153.32,-121.76 433.74,-357.97 841.26,-707.54 104.68,-89.9 259.8,-225.38 466.25,-406.48l26.67 -24.58c28.92,-27.66 57.38,-23.01 86.52,13.51 79.81,100.29 195.92,252.6 350.14,456.72 153.99,205.02 270.11,357.1 349.68,457.39 78.23,98.08 199.06,244.64 362.02,438.57 162.51,194.61 283.1,341.16 361.78,439.9 55.6,69.75 61.43,131.51 17.72,184.19 -26.01,31.01 -112.09,116.01 -257.78,255.71 -146.15,138.36 -235.6,221.83 -269.44,248.62 -28.47,22.58 -53.57,20.37 -75.1,-6.65 -6.49,-8.4 -17.03,-22.57 -31.38,-43.83 -255.76,-383 -496.95,-717.96 -724.47,-1004.22 -56.27,-71.28 -108.71,-101.6 -155.11,-90.77 -21.52,5.77 -76,43.62 -163.87,113.14 -92.12,73.05 -141.89,135.27 -150.41,185.74 -7.17,43.17 15.02,96.74 66.58,161.62 10.75,13.94 32.5,39.63 65.23,76.59 33.62,37.86 59.85,69.75 80.02,95.43 135.39,170.02 276.61,338.28 425,504.76 13.45,14.17 45.95,48.04 98.41,103.17 41.69,42.28 73.08,76.16 94.59,102.94 25.55,32.55 23.76,61.33 -7.17,85.9 28.24,-22.36 -85.4,47.37 -338.93,209.44 -117.45,75.05 -229.08,155.85 -337.13,241.53 -26.89,21.48 -56.71,12.4 -87.19,-26.35 0,0 -41.47,-66.41 -124.41,-199.02 -53.13,-82.8 -188.52,-261.69 -406.62,-535.99l-169.92 -214.31c-44.16,-55.34 -83.16,-77.48 -117.46,-65.74 -8.28,4.21 -50.65,36.97 -127.55,97.86 -102.87,81.91 -163.17,141.02 -182.68,177.55 -32.5,64.19 6.06,174.89 114.77,331.86 -1.56,-2.22 76.21,96.08 234.92,295.78 56.94,71.94 147.49,172.68 273.25,303.96 124.17,131.28 214.96,231.57 270.56,301.3 23.75,29.68 10.75,64.65 -37.45,103.18z"/>
  <path class="fil0" d="M19814.81 6903.77c-54.03,90.77 -131.59,149.22 -232.68,176.67 -101.1,26.57 -197.26,13.95 -287.59,-38.75 -90.57,-52.91 -147.95,-129.95 -171.71,-230.69 -24.43,-101.16 -10.09,-196.36 43.26,-286.02 53.36,-89.22 130.69,-147.23 231.33,-174.68 100.43,-27.67 196.14,-14.84 286.48,38.3 90.56,52.47 148.39,129.28 173.27,230.24 24.65,100.74 10.76,195.71 -42.36,284.93z"/>
  <path class="fil0" d="M18261.62 6469.62c-6.95,53.36 -35.87,76.16 -84.73,69.74l-907.62 -120.21c-49.99,-6.43 -70.6,-39.63 -62.54,-99.84 23.09,-172.46 63.44,-430.61 122.17,-773.76 58.06,-344.03 99.08,-602.18 121.95,-774.63 6.72,-49.82 2.45,-77.04 -12.79,-82.81 -19.72,8.19 -169.46,257.26 -448.08,747.42 -163.86,287.36 -327.28,574.72 -489.79,861.41 -22.64,36.09 -47.07,56.9 -73.08,60.66 -9.18,0.46 -43.26,-3.09 -103.78,-11.07 -88.54,-11.73 -139.2,-36.3 -151.3,-72.61 -68.15,-200.58 -152.66,-489.49 -255.77,-869.18 -110.73,-400.26 -195.02,-690.94 -252.17,-870.5 -2.48,-9.07 -9.2,-19.03 -20.18,-30.98 -13.23,13.28 -22.87,37.85 -27.35,71.95 -21.96,167.15 -50.88,418.86 -87.19,755.15 -35.87,336.3 -64.56,588.01 -86.75,755.16 -7.85,60.44 -35.64,87 -83.62,80.8l-855.82 -113.35c-34.97,-4.64 -54.7,-12.62 -60.97,-25.01 -6.29,-12.4 -7.41,-32.11 -3.59,-59.34 24.43,-186.4 70.39,-465.36 137.19,-835.74 67.92,-371.27 113.64,-650.21 138.29,-836.62 26.45,-197.71 67.03,-570.75 122.17,-1118.24 17.26,-141.9 37.43,-354.89 60.52,-636.71l3.14 -44.06c3.59,-34.31 41.69,-46.05 115.22,-36.3 93.48,12.39 235.14,27.45 423.88,46.27 188.74,19.7 330.41,34.75 424.1,47.15 19.28,2.65 40.58,42.07 65.24,118.22l531.47 1742.77c37.89,118 74.87,179.99 110.97,184.64 18.15,2.44 67.01,-56.89 146.37,-176.45 219.67,-336.06 546.94,-843.93 981.36,-1521.82 37.43,-62.65 73.52,-91.87 107.59,-87.23 49.99,6.64 124.19,19.05 223.27,37.42 99.75,18.6 174.84,31.21 226.39,38.07 42.14,5.55 108.27,9.97 197.71,12.84 88.53,2.89 154.89,7.09 197.93,12.85 50.65,6.65 73.97,31.21 68.59,72.39 -26.45,201.24 -74.64,501.22 -141.44,900.17 -67.92,398.94 -115,699.81 -141.67,901.05 -24.66,186.4 -53.57,466.69 -88.32,841.49 -33.4,374.82 -62.54,654.21 -86.97,838.84z"/>
  <path class="fil0" d="M13536.62 5903.32c24.66,102.05 10.08,197.25 -43.71,286.25 -54.25,88.34 -132.48,145.23 -234.69,169.14 -102.44,24.36 -198.16,8.41 -286.25,-47.59 -88.54,-56.02 -145.48,-133.73 -169.92,-234.9 -24.42,-100.51 -9.63,-195.26 43.72,-284.04 52.9,-88.78 131.13,-145.01 233.57,-169.14 102.21,-24.14 197.93,-8.86 287.15,46.49 88.54,55.35 145.47,133.27 170.13,233.79z"/>
  <path class="fil0" d="M11308.5 5278.56c96.61,178.44 247.25,445.21 451.45,799.65 203.32,354.66 353.72,621.44 450.56,799.87 16.59,30.34 19.94,53.58 10.32,67.76 -1.81,3.1 -20.42,17.26 -53.81,41.17 -91.68,65.98 -220.8,142.8 -386.22,232.46 -221.02,119.77 -365.15,191.06 -432.63,211.2 -49.09,14.84 -83.38,3.32 -104.23,-34.75 13,24.12 -51.78,-112.47 -196.14,-410.68 -305.74,-628.52 -510.63,-1039.64 -614.86,-1232.25 -87.87,-162.05 -225.28,-402.91 -410.88,-721.06 -186.72,-318.58 -323.9,-559.22 -412,-721.5 -17.93,-33.43 -9.19,-59.34 25.1,-77.93 47.08,-25.46 119.04,-61.56 216.1,-108.93 97.28,-46.71 169.68,-83.02 216.53,-108.26 47.3,-25.67 114.77,-65.53 203.98,-119.76 90.33,-54.02 158.26,-93.65 204.65,-118.89 44.39,-23.91 74.65,-19.48 93.03,13.94 87.87,162.06 211.39,410.45 370.09,744.1 157.58,333.41 280.86,581.58 368.96,743.86z"/>
  <path class="fil0" d="M10462.76 7823.2c74.41,75.49 111.17,165.6 112.08,269.87 -0.24,104.49 -37.67,193.72 -112.08,266.77 -74.65,73.5 -164.08,108.7 -268.55,105.38 -104.45,-3.1 -193.67,-41.39 -266.96,-116.22 -73.09,-74.62 -109.85,-164.05 -110.07,-268.55 -1.12,-103.83 35.86,-192.38 110.96,-265.88 74.42,-73.07 164.09,-108.93 268.77,-106.72 104.23,2.44 192.77,40.73 265.85,115.35z"/>
  <path class="fil0" d="M7115.19 7904.66c31.83,12.63 41.47,36.32 27.58,71.73 -24.45,61.55 -131.81,298.21 -321.9,710 401.68,170.03 683.23,286.7 843.28,350.01 188.74,74.4 476.34,179.55 862.78,314.15 386.23,134.38 674.04,239.54 863.01,313.94 30.26,12.17 47.29,27.23 48.86,44.93 1.58,5.54 -3.58,30.11 -14.56,72.18 -24.44,101.17 -74.66,244.86 -147.73,430.38 -81.81,206.77 -145.03,350.02 -190.98,427.72 -26,41.85 -59.4,54.46 -101.09,37.86 -188.97,-74.61 -470.06,-194.15 -842.16,-359.97 -372.33,-165.17 -652.98,-285.39 -842.16,-359.98 -124.85,-49.38 -406.62,-152.99 -844.62,-311.73 -95.05,333.64 -179.1,595.54 -254.87,786.82 -9.87,25.46 -23.31,35.43 -39.22,29.23 -21.3,-8.42 -78.24,-44.29 -172.15,-106.94 -102.01,-70.84 -164.55,-111.58 -187.18,-124.19 -73.53,-34.76 -146.16,-70.18 -219.46,-105.61 -115.88,-59.11 -168.34,-102.5 -157.57,-129.73 1.56,-3.1 6.49,-13.51 15.91,-32.54 136.06,-246.19 304.18,-624.1 504.8,-1132.41 56.94,-144.34 147.49,-416.21 270.11,-816.69 66.13,-214.98 99.53,-323.46 99.98,-325 12.55,-32.11 22.18,-49.16 28.47,-52.48 5.82,-3.32 22.85,-0.44 50.43,8.63 43.48,17.28 102.66,42.52 178.65,76.39 83.61,36.53 142.56,61.99 177.99,75.93 40.12,15.72 101.31,34.1 183.58,54.24 81.36,19.93 141.45,38.08 180.22,53.13z"/>
  <path class="fil0" d="M15520.63 8608.02c2603.81,0 4727.03,2123.33 4727.03,4726.87 0,2603.52 -2123.22,4727.08 -4727.03,4727.08 -2603.13,0 -4726.8,-2123.56 -4726.8,-4727.08 0,-2603.54 2123.67,-4726.87 4726.8,-4726.87zm0 -1283.83c3310.58,0 6010.78,2700.05 6010.78,6010.7 0,3310.63 -2700.2,6010.91 -6010.78,6010.91 -3310.57,0 -6010.55,-2700.28 -6010.55,-6010.91 0,-3310.65 2699.98,-6010.7 6010.55,-6010.7z"/>
  <path class="fil0" d="M15533.85 17054.66l-571.83 -3104.3 -521.31 -2830.23c-772.28,406.81 -1283.67,1229.23 -1295.21,2119.96l-1469.63 -15.44c26.96,-2085.06 1694.87,-3841.38 3844.73,-3841.38 2204.18,0 3801.97,1810.09 3841.64,3846.9l-1473.35 0c-32.08,-841.88 -493.26,-1683.54 -1263.6,-2103l-519.61 2823.19 -571.83 3104.3z"/>
  <polygon class="fil0" points="4762.21,12852.03 8091.62,12852.03 8091.62,14015.65 4762.21,14015.65 "/>
  <g id="_2036808654416">
   <path class="fil1" d="M-0 15183.53l998.8 -243.97 -77.58 -376.8 202.96 -49.55 208 1009.46 -203.08 49.68 -77.22 -374.97 -998.92 243.97 -52.96 -257.82zm203.92 929.18l-61.01 -240.43 860.58 -258.87 56.68 222.91 -122.13 36.74c67.49,21.05 114.08,44.06 139.78,69.43 25.82,25.36 43.6,57.52 53.32,96.49 14.05,54.91 13.09,112.3 -2.4,171.66l-217.49 -14.9c14.54,-48.12 17.42,-89.69 8.65,-124.47 -8.65,-33.99 -24.86,-60.01 -48.16,-78.19 -23.65,-18.04 -59.68,-26.93 -109.16,-26.67 -49.24,0.4 -147.11,22.49 -293.38,66.55l-265.28 79.75zm1091.87 159.38l210.52 -63.41 61.13 240.7 -210.65 63.28 -61 -240.57zm-976.71 293.65l860.58 -258.74 61.01 240.56 -860.7 258.88 -60.89 -240.7zm318.85 1076.27l126.93 -45.5c-55.12,-16.6 -104.12,-46.8 -147.23,-90.34 -42.75,-43.8 -73.01,-95.31 -90.91,-154.41 -18.37,-60.66 -22.22,-119.23 -11.77,-176.11 10.57,-57.26 35.55,-104.46 74.34,-141.98 38.91,-37.92 98.47,-71 178.46,-99.76l537.89 -192.58 71.57 236.9 -390.54 139.9c-119.49,42.88 -191.3,73.34 -215.44,91.91 -24.38,18.43 -41.07,41.97 -49.48,70.86 -8.89,28.76 -7.93,60.93 2.88,96.75 12.25,40.66 33.87,73.22 64.61,97.93 30.87,24.84 63.53,37.39 98.48,37.91 34.82,0.66 113,-20.66 234.66,-64.19l358.47 -128.39 71.57 237.03 -848.08 303.85 -66.41 -219.78zm966.01 50.08l84.91 210.1 -111.69 53.47c116.37,34.13 195.63,103.42 237.78,207.62 22.34,55.18 30.99,108.39 25.82,159.38 -5.04,51.12 -24.13,100.02 -57.16,146.69 58.85,17.26 107.96,42.89 147.23,76.49 39.39,33.47 69.06,75.43 89.23,125.38 25.58,63.41 35.19,122.77 28.58,178.59 -6.6,55.7 -29.18,105.51 -67.61,149.96 -28.22,32.3 -81.54,67.21 -159.36,104.47l-521.92 249.72 -92.35 -228.41 466.56 -223.31c81.06,-38.83 130.18,-71.65 147.11,-98.58 22.34,-35.82 24.5,-76.09 6.72,-119.89 -12.97,-32.03 -34.34,-57.92 -64.25,-77.53 -30.02,-19.09 -65.32,-26.8 -105.8,-22.23 -40.71,4.45 -99.31,25.37 -176.17,62.11l-391.98 187.61 -92.23 -228.54 447.34 -214.02c79.26,-37.92 128.98,-66.81 148.56,-85.77 19.81,-19.09 32.18,-39.75 36.5,-62.49 4.33,-22.36 0.48,-48.38 -11.17,-77.54 -14.29,-35.3 -36.14,-62.62 -65.33,-82.23 -29.54,-19.74 -63.28,-27.33 -102.19,-23.41 -38.79,3.93 -97.4,24.85 -175.58,62.24l-396.66 189.84 -92.23 -228.41 817.34 -391.31zm570.92 1407.31l104.48 203.57 -114.33 69.68c52.72,2.62 102.44,19.09 149.88,49.29 47.07,30.34 84.9,73.22 113,128 49.12,95.7 55.48,198.6 18.74,308.68 -36.75,109.83 -118.77,203.57 -245.35,280.71 -130.42,79.36 -248.71,107.21 -355.59,83.94 -106.88,-23.28 -184.82,-82.9 -234.18,-178.86 -23.3,-45.5 -36.03,-92.04 -37.83,-139.63 -1.92,-47.2 7.21,-104.21 27.86,-170.36l-390.06 237.3 -111.8 -217.82 1075.18 -654.5zm-267.45 444.53c-87.9,53.47 -143.26,111.26 -166.32,173.62 -23.06,61.97 -21.14,119.63 5.76,172.19 26.06,50.6 67.01,80.93 122.86,91.13 55.84,10.2 127.29,-11.51 215.2,-64.98 82.02,-49.94 134.14,-104.2 156,-163.17 22.22,-58.57 19.93,-113.61 -6.37,-164.73 -27.26,-53.35 -69.65,-85.64 -126.57,-96.88 -57.17,-11.38 -123.94,6.27 -200.56,52.82zm1151.2 508.72l-387.29 262.92c116.49,16.47 202.47,72.56 257.23,168.13 28.11,49.29 44.92,99.37 50.56,150.36 5.29,51.12 0.6,95.44 -14.65,133.75 -15.13,38.04 -36.75,71.78 -64.85,100.93 -28.22,29.42 -76.26,66.94 -144.11,113.09l-443.86 301.24 -121.17 -211.68 399.55 -271.29c79.26,-53.73 127.29,-92.17 144.11,-114.66 16.69,-22.75 25.58,-48.77 26.06,-77.79 0.84,-29.16 -7.57,-59.23 -25.34,-90.48 -20.42,-35.56 -46.6,-61.84 -79.02,-78.83 -32.07,-17.13 -68.22,-20.92 -108.09,-11.64 -39.87,8.76 -91.87,35.04 -155.28,78.18l-379 257.31 -121.3 -211.68 1045.28 -709.54 121.17 211.68zm-12.61 1211.2l-86.94 -209.32c85.14,-32.95 161.16,-36.61 228.17,-11.38 66.77,25.24 132.46,88.38 196.59,189.32 58.13,91.65 91.39,167.61 99.44,228.01 8.04,60.28 2.16,111.53 -17.9,153.5 -20.05,41.96 -71.93,94.78 -156.48,158.32l-228.29 167.49c-64.37,48.37 -109.88,87.46 -136.42,117.01 -26.54,29.68 -51.52,66.55 -75.06,110.74l-129.34 -203.7c9.37,-14.77 24.02,-35.82 43.95,-62.36 9.61,-11.9 15.5,-20.14 18.14,-24.19 -54.64,-10.46 -102.8,-29.68 -144.47,-57.26 -41.67,-27.85 -76.86,-64.07 -105.56,-109.31 -50.56,-79.62 -70.14,-157.93 -58.25,-234.81 11.65,-76.74 48.88,-138.59 111.57,-185.78 41.31,-31.12 85.02,-48.64 130.9,-52.04 45.75,-3.4 89.23,7.06 130.54,31.9 41.19,24.84 90.79,67.86 149.15,129.31 77.7,83.15 136.06,137.67 174.25,163.69l19.58 -14.78c37.71,-28.37 58.36,-58.31 62.21,-90.21 3.6,-31.64 -11.77,-74.79 -46.24,-129.04 -23.3,-36.61 -48.4,-59.88 -75.18,-69.95 -26.9,-10.33 -61.72,-8.63 -104.36,4.84zm18.02 393.92c-24.98,-20 -61.25,-54.38 -109.17,-102.89 -47.79,-48.11 -82.86,-77.01 -104.72,-86.42 -35.18,-13.08 -66.53,-9.41 -94.03,11.37 -27.38,20.53 -43.83,48.9 -50.08,85.25 -6,36.47 1.2,71.12 22.34,104.33 23.54,37 57.52,63.67 101.84,80.15 33.38,11.5 65.09,11.89 95.47,0.39 19.82,-7.19 53.2,-28.11 99.68,-63.02l38.67 -29.16zm397.38 1342.6l-139.19 -198.2 361.48 -300.84c76.62,-63.68 122.97,-109.3 139.43,-136.37 16.33,-27.32 24.13,-55.43 23.05,-85.24 -1.08,-29.68 -10.92,-58.05 -30.02,-85.12 -24.26,-34.64 -55.12,-58.31 -92.23,-71.12 -37.23,-12.81 -74.1,-12.03 -110.36,2.09 -36.75,14.12 -94.52,54.13 -173.78,120.15l-320.88 266.85 -139.07 -198.21 709.5 -590.3 128.86 183.82 -104 86.56c125.62,-0.26 223.37,49.55 293.75,149.57 30.86,43.93 51.52,90.47 62.32,139.24 10.69,49.16 11.17,92.43 1.09,130.09 -10.09,38.17 -27.02,72.95 -51.28,104.72 -24.14,31.9 -63.65,70.34 -118.29,115.84l-440.38 366.47zm1099.8 -112.7l-143.39 131.4 -101.36 -130.88 -276.57 253.51c-56.08,51.52 -87.91,82.63 -95.11,93.62 -7.33,11.11 -10.57,23.66 -9.73,38.3 0.84,14.39 6.13,27.85 15.97,40.53 13.81,17.92 39.27,38.18 76.98,61.32l-128.14 144.73c-52.11,-27.97 -99.91,-69.81 -143.38,-126.03 -26.66,-34.39 -45.04,-70.21 -55.37,-107.86 -10.44,-37.66 -11.89,-71 -4.44,-99.76 7.45,-29.03 24.14,-59.36 49.96,-91.78 18.01,-23.27 58.96,-64.46 123.09,-123.29l299.03 -274.17 -67.85 -87.73 143.39 -131.53 67.85 87.73 135.58 -124.33 254.24 93.22 -242.11 222 101.36 131zm-255.56 1113.54l862.38 -957.56 173.17 184.87 -862.25 957.56 -173.3 -184.87zm917.14 942.26l-171.13 -165.91 302.75 -370.01c64.01,-78.18 101.72,-132.57 113.01,-162.51 11.41,-30.33 14.05,-59.49 7.81,-88.51 -6.13,-28.9 -20.9,-54.65 -44.2,-77.27 -29.9,-29.02 -64.37,-45.89 -103.04,-50.86 -38.79,-4.97 -74.69,3.53 -108.08,24.84 -33.5,21.44 -83.22,72.56 -149.63,153.62l-268.53 328.3 -171.13 -165.91 593.86 -725.89 158.64 153.76 -87.19 106.55c123.45,-26.15 228.17,2.49 314.52,86.29 37.83,36.74 66.41,78.19 85.39,123.82 19.09,46.15 27.02,88.51 23.89,127.6 -3.36,39.49 -13.93,77.14 -32.3,113.35 -18.14,36.35 -50.2,82.24 -95.95,138.2l-368.69 450.54zm266.49 -99.23l202.23 127.47c-21.01,45.24 -27.38,88.25 -18.73,128.65 8.28,40.66 33.5,79.36 75.42,116.23 46.23,40.66 87.9,61.71 125.37,63.41 25.58,0.39 46.72,-10.72 63.41,-33.08 11.17,-15.03 16.09,-31.51 15.01,-48.89 -1.92,-17.26 -15.01,-43.93 -40.11,-78.84 -117.69,-162.65 -184.82,-275.48 -201.63,-338.89 -23.06,-88.25 -7.57,-168.39 46.35,-240.96 48.76,-65.76 112.89,-100.54 192.39,-104.59 79.26,-4.05 167.41,36.48 264.44,121.85 92.47,81.32 148.43,158.85 168.37,232.07 19.57,73.48 13.57,150.75 -18.74,231.94l-193.82 -112.7c14.77,-35.96 17.89,-71 9.48,-104.47 -8.52,-33.6 -31.58,-66.81 -69.17,-99.75 -47.2,-41.58 -86.59,-64.07 -118.05,-67.34 -21.38,-1.69 -38.19,6.02 -50.56,22.62 -10.57,14.25 -13.69,31.64 -9.24,52.04 6.36,27.59 48.15,95.44 125.61,203.7 77.46,108.12 122.01,196.37 133.66,264.75 11.17,68.38 -7.08,134.66 -54.4,198.34 -51.16,69.16 -121.41,106.03 -210.16,110.34 -88.51,4.32 -183.74,-38.04 -285.34,-127.34 -91.87,-80.93 -149.27,-165.78 -172.21,-254.69 -22.7,-88.64 -15.97,-175.98 20.42,-261.87zm1480.13 370.78l-110.61 164.74 -127.05 -101.07 -213.29 317.84c-43.35,64.46 -67.49,102.89 -72.05,115.45 -4.57,12.68 -5.17,25.75 -1.08,39.74 3.96,13.73 11.89,25.5 24.26,35.3 17.41,13.73 46.47,26.93 88.14,39.49l-92.95 173.75c-56.68,-13.73 -112.16,-41.97 -166.81,-85.37 -33.38,-26.54 -59.08,-56.61 -77.21,-90.48 -18.38,-33.99 -27.03,-65.89 -26.06,-95.7 1.08,-30.2 10.56,-64.06 28.58,-102.11 12.37,-27.33 43.23,-77.92 92.71,-151.66l230.81 -343.59 -85.14 -67.6 110.72 -164.86 85.03 67.72 104.6 -155.71 267.2 24.84 -186.74 278.22 126.94 101.06zm157.8 -29.15l120.33 -198.6 191.42 137.41 -120.33 198.6 -191.42 -137.41zm-557.59 921.08l491.42 -811.65 191.42 137.41 -491.53 811.65 -191.31 -137.41zm1210.53 -295.48l-103.04 170.36 -131.38 -94.27 -199 328.69c-40.47,66.68 -62.8,106.42 -66.89,119.11 -4.08,12.94 -3.96,26.01 0.6,39.87 4.69,13.47 13.21,24.71 25.94,33.87 18.02,12.94 47.68,24.44 89.83,34.9l-85.02 178.34c-57.41,-10.59 -114.09,-35.96 -170.41,-76.36 -34.59,-24.84 -61.61,-53.47 -81.3,-86.42 -19.82,-32.81 -29.91,-64.32 -30.27,-94.13 -0.36,-30.2 7.69,-64.46 24.14,-103.55 11.05,-27.85 39.51,-80.02 85.75,-156.37l215.2 -355.23 -88.03 -63.15 103.16 -170.35 87.91 63.01 97.63 -161.07 268.05 10.72 -174.25 287.76 131.38 94.27zm140.62 1218.78l68.09 -125.25c-51.63,27.07 -106.64,39.49 -165.36,37.53 -58.73,-2.23 -112.77,-19.22 -162.01,-50.86 -50.43,-32.43 -88.74,-73.87 -115.28,-124.21 -26.54,-50.6 -36.39,-103.94 -29.91,-160.03 6.25,-56.48 30.99,-124.07 73.98,-203.04l288.1 -530.69 197.31 126.95 -209.32 385.43c-64.01,117.93 -99.43,192.33 -106.52,223.57 -7.21,31.38 -5.52,61.06 5.64,88.91 10.69,27.98 30.99,51.51 60.77,70.6 33.87,21.83 69.77,30.86 107.84,27.46 38.19,-3.4 70.38,-17.52 97.04,-42.1 26.66,-24.45 72.53,-96.49 137.74,-216.64l192.03 -353.53 197.31 126.95 -454.43 836.75 -183.02 -117.8zm1162.61 -429.09l-87.43 180.55 -139.18 -79.88 -168.49 348.3c-34.23,70.73 -52.96,112.57 -55.84,125.64 -2.89,13.34 -1.57,26.28 4.32,39.62 5.64,12.81 15.25,23.14 28.7,30.98 18.98,10.85 49.6,19.22 92.59,25.1l-68.69 186.57c-58.01,-4.44 -116.73,-23.66 -176.42,-57.92 -36.62,-20.91 -66.05,-46.54 -88.62,-77.26 -22.7,-30.6 -35.55,-60.8 -38.55,-90.48 -3,-30.07 1.8,-65.11 14.53,-105.64 8.65,-28.89 32.3,-83.8 71.45,-164.73l182.18 -376.54 -93.19 -53.48 87.43 -180.55 93.19 53.47 82.62 -170.75 267.81 -17.78 -147.72 304.89 139.31 79.89zm304.07 884.34l191.19 144.21c-62.93,71.78 -132.94,115.05 -209.44,130.87 -76.62,15.3 -158.16,1.18 -244.39,-42.49 -136.78,-69.29 -216.88,-170.62 -239.46,-304.11 -17.65,-106.55 -0.48,-221.08 52,-343.59 62.33,-146.04 145.55,-243.44 248.83,-291.82 103.4,-48.37 207.28,-46.15 311.4,6.54 116.84,59.23 190.7,149.31 221.56,270.12 30.39,120.8 6.01,269.98 -73.37,447.4l-520.36 -263.45c-27.98,69.82 -34.22,132.05 -18.49,186.96 15.25,54.39 47.07,94.01 94.63,118.06 32.66,16.48 64.13,20.4 94.51,11.64 30.75,-8.5 61.13,-32.03 91.39,-70.34zm112.89 -230.11c27.5,-68.24 33.98,-127.73 19.45,-177.68 -14.53,-50.46 -42.87,-86.16 -85.38,-107.73 -45.28,-22.88 -90.79,-23.14 -136.07,-0.91 -45.39,22.09 -81.54,65.37 -108.32,129.3l310.32 157.02zm694.49 387.92c25.82,-80.93 68.45,-152.32 128.14,-214.42 59.68,-62.24 128.37,-100.67 206.07,-115.84 77.82,-15.04 156.72,-7.71 237.06,22.62 124.06,47.07 211,130.61 261.56,250.76 50.2,120.55 53.32,249.33 9.13,387.26 -44.43,139.24 -121.17,239.39 -230.22,300.58 -109.4,61.06 -224.45,68.64 -345.98,22.62 -74.94,-28.5 -140.63,-74.79 -196.59,-138.59 -55.72,-63.8 -89.71,-139.11 -101.96,-226.31 -12.01,-86.95 -0.96,-183.3 32.79,-288.68zm218.56 97.27c-29.06,91.13 -32.18,168.26 -9.24,231.15 23.3,63.41 63.05,105.51 119.49,126.95 56.44,21.31 111.56,15.17 165.24,-19.09 53.69,-33.86 95.36,-97.01 124.9,-189.44 28.7,-89.82 31.58,-166.44 9.01,-229.19 -22.7,-63.02 -62.33,-105.25 -118.65,-126.56 -56.69,-21.44 -111.81,-15.17 -166.09,18.69 -53.92,33.74 -95.47,96.36 -124.66,187.49zm805.1 -219.91l122.01 38.83 18.86 -70.47c21.01,-78.58 44.31,-134.93 69.65,-168.79 25.46,-34.12 61.49,-56.87 108.2,-68.38 46.96,-11.5 101,-7.58 162.49,11.9 63.04,20.13 122.01,50.21 177.01,90.47l-74.22 162.52c-33.38,-20.79 -66.65,-36.48 -99.79,-47.07 -32.67,-10.33 -58.25,-9.41 -76.86,2.88 -18.73,12.29 -34.71,42.36 -47.56,90.34l-17.77 66.42 165.37 52.69 -52 194.15 -165.49 -52.69 -198.15 738.96 -220.01 -69.82 198.15 -738.96 -122.01 -38.83 52.12 -194.15zm828.87 1264.15l222.65 -1318.93 357.39 71.38 59.45 941.74 360.51 -857.67 358.12 71.65 -222.53 1318.93 -220.61 -44.19 174.49 -1038.49 -407.47 991.95 -229.37 -45.9 -55.97 -1084.64 -176.05 1038.23 -220.61 -44.06zm1624.24 -385.3l-200.91 -70.08c34.58,-90.73 83.1,-154.66 145.19,-191.93 61.96,-37 149.15,-47.72 260.84,-31.77 101.47,14.39 175.57,38.57 222.05,72.57 46.35,33.86 77.46,72.95 92.59,117.27 15.13,44.45 16.45,121.72 3.12,232.59l-39.03 296.66c-10.21,84.46 -14.17,147.48 -11.65,188.66 2.28,41.45 10.57,86.29 25.1,134.93l-225.65 -32.04c-3.73,-17.51 -8.29,-43.4 -12.97,-77.4 -1.8,-15.68 -3.37,-26.01 -4.45,-30.85 -43.83,37.13 -88.98,63.15 -135.82,78.18 -46.96,15.17 -95.23,19.22 -145.31,12.16 -88.03,-12.55 -154.56,-49.29 -198.99,-110.47 -44.44,-60.8 -61.61,-132.45 -51.88,-214.82 6.6,-54.25 24.02,-101.19 52.36,-140.67 28.22,-39.1 64.73,-67.21 109.28,-83.81 44.56,-16.6 107.12,-27.85 188.07,-33.86 108.8,-7.06 185.06,-17.65 228.41,-30.99l3 -25.62c6.01,-49.56 -0.48,-86.43 -19.57,-110.87 -19.22,-24.06 -58.97,-40.53 -119.01,-49.03 -40.6,-5.89 -73.26,-1.18 -98.12,13.86 -25.1,14.64 -47.2,43.93 -66.65,87.33zm280.53 249.59c-30.38,6.8 -78.18,13.21 -143.27,19.35 -64.84,6.14 -108.08,15.17 -129.09,26.54 -32.55,19.61 -51.04,47.33 -55.37,83.55 -4.32,35.95 3.85,68.24 24.5,97.66 20.78,29.29 49.36,46.68 86.11,51.91 40.83,5.75 82.02,-3.8 122.85,-28.51 30.27,-19.35 51.76,-44.58 64.37,-76.87 8.41,-20.79 16.45,-61.84 23.78,-122.77l6.12 -50.86zm1183.51 543.76l-229.02 -6.54 11.77 -495.12c2.64,-104.86 -0.96,-172.84 -9.85,-203.7 -9.36,-31.11 -24.74,-55.3 -46.47,-73.08 -21.98,-17.78 -48.52,-27.07 -79.86,-27.98 -39.99,-1.05 -76.26,10.2 -108.69,33.6 -32.54,23.4 -55.12,55.17 -67.85,94.79 -12.85,40 -20.53,114 -23.17,222.65l-10.45 439.43 -229.02 -6.54 23.06 -971.68 212.44 6.02 -3.48 142.51c78.78,-106.69 175.69,-158.33 291.34,-155.07 50.8,1.44 97.16,13.08 138.71,34.52 41.91,21.83 73.13,48.64 93.79,80.8 20.89,32.42 35.07,68.64 42.63,109.17 7.69,40.53 10.33,98.19 8.65,172.97l-14.53 603.25zm386.93 -660.91l-208.48 -35.3c21.26,-95.57 59.93,-166.95 116.13,-214.15 55.96,-47.07 140.39,-72.3 253.03,-75.57 102.32,-2.88 178.94,8.5 229.86,34.25 50.56,25.63 86.83,58.97 108.08,100.15 21.38,41.32 33.51,117.54 36.15,229.19l3.72 299.67c2.16,85.24 7.21,148.13 15.49,188.4 8.17,40.53 22.82,83.54 43.96,129.04l-227.33 6.41c-6.25,-16.61 -14.42,-41.45 -23.9,-74.27 -3.97,-15.16 -6.97,-24.97 -8.77,-29.67 -37.95,44.06 -79.02,77.39 -123.09,100.27 -44.2,22.88 -91.15,35.04 -141.71,36.48 -88.87,2.49 -159.84,-22.62 -212.32,-75.57 -52.72,-52.42 -79.86,-120.41 -81.91,-203.3 -1.32,-54.65 9.25,-104.07 31.71,-147.87 22.21,-43.41 54.16,-77.27 95.95,-101.33 41.55,-23.92 101.84,-45.63 180.86,-65.11 106.52,-25.36 180.38,-48.76 221.21,-69.29l-0.6 -25.89c-1.08,-49.94 -12.85,-85.11 -35.19,-106.03 -22.46,-20.66 -64.01,-30.2 -124.53,-28.5 -40.96,1.17 -72.54,11.24 -95,30.33 -22.57,18.7 -40.35,51.38 -53.32,97.66zm312.6 199.13c-28.94,11.76 -75.18,26.14 -138.71,43.27 -63.16,17.13 -104.59,33.34 -123.81,48.11 -29.3,24.85 -43.59,55.31 -42.75,91.79 0.84,36.21 13.69,66.68 38.19,92.3 24.62,25.5 55.36,37.79 92.47,36.74 41.31,-1.18 80.46,-17.52 117.33,-48.9 27.02,-24.19 44.67,-52.82 52.48,-86.81 5.4,-21.97 7.56,-63.93 6.12,-125.25l-1.32 -51.25zm445.9 518.39l264.44 13.21c6.97,34.12 18.86,56.87 35.19,68.77 23.3,16.47 58.24,22.88 104.96,18.82 59.69,-5.1 103.76,-18.82 132.34,-41.57 18.98,-15.04 32.79,-37.92 40.95,-68.64 5.41,-21.71 6.25,-61.58 2.16,-118.59l-9.12 -141.59c-61.49,111.26 -144.35,171.27 -248.95,180.16 -116.13,9.94 -212.33,-37.39 -288.1,-141.33 -59.57,-82.37 -94.03,-188.4 -103.4,-317.44 -11.77,-162.52 14.41,-289.34 78.18,-380.99 63.53,-91.39 147.59,-141.85 251.47,-150.74 107,-9.03 199.23,36.08 276.33,135.31l-9.85 -137.28 213.41 -18.17 62.32 868.92c8.29,114.14 6.25,200.56 -6.72,258.35 -12.61,58.04 -33.03,104.2 -61.37,139.24 -27.98,34.64 -66.77,63.54 -116.37,85.89 -49.6,22.75 -113.12,37.14 -190.58,43.8 -146.88,12.55 -252.92,-6.93 -318.37,-58.05 -65.45,-51.38 -101.23,-120.02 -107.36,-206.83 -0.72,-8.5 -1.2,-18.96 -1.56,-31.25zm164.65 -583.24c7.32,102.76 30.5,176.11 69.17,220.82 39.03,44.59 84.66,64.85 136.78,60.4 55.49,-4.7 101,-33.47 135.95,-85.5 35.18,-52.17 48.99,-125.91 42.15,-221.87 -7.21,-100.28 -30.86,-172.97 -71.33,-218.47 -40.24,-45.37 -88.63,-65.77 -145.08,-60.93 -54.76,4.71 -98.11,32.43 -130.17,83.28 -31.95,50.47 -44.56,124.47 -37.47,222.27zm1331.93 49.16l232.38 10.33c-17.89,97.4 -55.6,174.8 -112.41,232.72 -57.16,57.52 -132.94,93.09 -227.33,106.55 -149.63,21.18 -267.08,-17.65 -351.75,-117.14 -67.25,-79.89 -109.04,-186.57 -125.25,-320.58 -19.1,-159.77 3.24,-290.38 66.77,-391.45 63.53,-101.19 152.39,-159.9 266.24,-176.11 127.78,-18.17 234.42,14.91 319.93,99.1 85.14,84.2 137.98,224.36 158.04,420.47l-569 80.93c10.81,75.18 36.03,131.53 76.38,168.66 39.63,37 85.99,51.91 137.99,44.58 35.66,-5.09 64.12,-20.26 85.62,-45.36 21.74,-25.11 35.79,-62.63 42.39,-112.7zm-17.65 -260.05c-10.57,-73.74 -34.23,-127.74 -71.09,-161.47 -37.11,-34.12 -78.66,-47.72 -125.14,-41.18 -49.36,7.06 -87.91,33.34 -115.41,78.57 -27.38,45.11 -36.63,102.77 -27.74,172.32l339.38 -48.24zm260.12 -424.78l204.99 -52.95 28.23 129.17c52,-118.32 128.73,-190.89 230.45,-217.16 54.04,-13.99 103.64,-13.6 148.8,1.04 45.27,14.64 85.86,43.93 122.13,87.86 26.3,-60.01 58.24,-108.12 95.59,-144.08 37.35,-35.95 80.58,-60.27 129.58,-72.95 61.73,-15.95 117.21,-15.43 166.45,1.7 49.11,17.12 89.95,50.2 123.21,99.36 24.14,36.09 46,99.37 65.57,189.58l131.62 603.9 -223.01 57.66 -117.69 -539.84c-20.41,-93.87 -41.19,-152.31 -62.57,-175.33 -28.22,-30.33 -64.25,-39.87 -107.12,-28.89 -31.22,8.11 -58.48,26.41 -81.54,54.78 -22.58,28.76 -35.91,65.24 -39.15,109.3 -3.36,44.59 5.04,111.13 24.38,200.04l98.83 453.41 -223.13 57.66 -112.76 -517.61c-20.06,-91.78 -37.11,-150.22 -50.56,-174.54 -13.69,-24.71 -30.26,-41.58 -50.08,-50.34 -19.33,-8.76 -43.47,-9.28 -72.05,-1.96 -34.35,8.89 -63.17,27.33 -85.99,55.05 -23.18,28.11 -36.15,62.88 -39.63,105.24 -3.36,42.23 4.92,108.78 24.62,199.12l100.04 459.04 -223.13 57.66 -206.08 -945.92zm2070.14 110.21l231.17 -28.76c-3.84,99.23 -30.26,181.99 -78.3,248.67 -48.27,66.55 -118.29,114.27 -209.56,143.43 -144.71,45.89 -266.48,27.19 -364.23,-57.01 -77.7,-67.59 -134.03,-166.04 -168.85,-295.87 -41.43,-154.54 -37.83,-287.37 10.69,-397.98 48.39,-110.61 128.01,-183.43 238.26,-218.47 123.57,-39.22 233.7,-24.45 330.13,44.45 95.95,69.03 167.89,198.6 215.44,389.09l-550.86 175.07c21.38,72.56 54.16,123.94 99.2,153.88 44.55,29.94 92.47,37 142.79,20.92 34.58,-10.98 60.4,-30.59 78.18,-58.96 17.89,-28.51 26.54,-67.99 25.94,-118.46zm-54.04 -254.16c-20.78,-70.99 -51.88,-120.42 -93.08,-147.61 -41.43,-27.59 -84.42,-34.12 -129.45,-19.74 -47.8,15.16 -82.15,47.59 -102.92,96.88 -20.78,49.16 -21.74,107.73 -3.12,174.93l328.57 -104.46zm1285.34 118.45l-216.41 81.98 -149.51 -467.8c-31.59,-99.1 -56.81,-161.34 -75.42,-186.7 -18.73,-25.63 -40.83,-42.23 -67.13,-50.6 -26.3,-8.1 -54.04,-6.67 -83.59,4.58 -37.82,14.38 -68.09,38.83 -90.9,73.21 -22.94,34.39 -33.63,72.83 -32.67,114.8 0.96,42.36 17.65,114.53 50.44,217.16l132.7 415.11 -216.4 81.97 -293.39 -918.07 200.55 -75.96 43 134.66c39.15,-130.09 113.12,-215.59 222.41,-257.04 47.91,-18.17 94.99,-25.1 140.86,-21.05 46.36,4.45 84.07,17.52 113.97,39.49 30.14,22.48 55.12,50.85 75.18,85.89 20.29,34.91 41.55,87.86 64.25,158.59l182.06 569.78zm241.5 -1174.98l70.49 189.18 -145.79 64.33 135.83 364.77c27.62,74.13 44.91,116.62 52.36,127.47 7.44,10.99 17.41,18.31 30.5,21.97 12.73,3.53 26.06,2.35 40.23,-3.92 19.94,-8.76 45.52,-28.9 77.34,-60.8l86.71 177.42c-40.47,45.37 -91.87,81.84 -154.32,109.56 -38.43,16.87 -75.3,24.84 -111.57,23.93 -36.02,-0.92 -65.45,-9.81 -88.38,-26.41 -23.06,-16.74 -44.44,-43.41 -64.61,-80.15 -14.77,-25.76 -38.19,-80.93 -69.66,-165.65l-146.87 -394.45 -97.63 43.14 -70.38 -189.18 97.64 -43.01 -66.65 -178.86 160.2 -234.42 118.89 319.4 145.67 -64.32zm899.85 602.33l-573.92 -1186.49 784.56 -449.89 97.03 200.43 -569.95 326.86 127.41 263.44 529.97 -303.84 97.03 200.43 -529.96 303.97 155.64 321.5 590.61 -338.62 97.03 200.43 -805.45 461.78zm1662.55 -1023.85l-183.02 117.8 -66.65 -122.77c-4.45,67.34 -21.38,126.43 -49.84,177.29 -28.46,50.73 -63.89,89.82 -106.16,117.02 -86.11,55.43 -180.86,64.19 -284.5,26.14 -103.28,-38.3 -192.75,-126.42 -268.17,-265.4 -77.09,-141.86 -105.92,-268.94 -86.34,-381.38 19.45,-112.44 74.94,-197.81 166.21,-256.52 83.46,-53.73 177.13,-61.58 280.29,-23.14l-226.13 -416.28 197.31 -127.09 627 1154.33zm-763.19 -95.18c48.52,89.43 94.76,147.22 138.35,173.1 63.53,37.53 123.69,37.92 180.74,1.18 45.39,-29.15 72.29,-75.83 80.34,-139.76 8.28,-64.07 -11.05,-138.98 -58.13,-225.53 -52.24,-96.49 -105.32,-155.85 -159.36,-178.47 -54.16,-22.49 -104.96,-18.56 -153.11,12.55 -46.96,30.21 -74.7,76.36 -83.59,138.59 -8.52,62.23 9.49,135.06 54.76,218.34zm1408.92 -419.68l-78.9 -117.54c2.52,62.36 -8.77,122.24 -33.63,180.29 -25.1,57.92 -60.64,105.25 -106.88,141.86 -47.19,37.65 -97.27,59.75 -150.23,66.42 -53.2,6.66 -102.08,-4.58 -147,-33.21 -45.03,-28.5 -92.35,-80.02 -142.06,-154.02l-334.22 -497.73 184.94 -147.22 242.71 361.37c74.21,110.61 123.09,175.46 146.75,194.81 23.66,19.61 49.36,29.68 77.22,29.42 27.86,0.39 55.6,-10.59 83.46,-32.82 31.83,-25.23 53.68,-57.66 65.81,-97.14 12.13,-39.49 12.97,-77.27 2.76,-113.62 -10.2,-36.34 -52.84,-110.61 -128.49,-223.31l-222.77 -331.56 185.06 -147.35 526.96 784.72 -171.49 136.63zm552.54 -1341.29l-149.75 189.57c-34.95,-33.99 -70.14,-51.38 -105.93,-52.82 -35.66,-1.3 -70.25,12.56 -103.63,41.97 -44.44,39.23 -67.14,87.73 -67.98,145.52 -0.96,57.79 28.71,126.95 88.51,207.75 66.77,89.82 127.3,141.46 181.82,154.93 54.4,13.47 104,0.26 149.15,-39.48 33.87,-29.68 53.56,-65.11 58.97,-105.51 5.52,-40.8 -6.85,-91.26 -37.23,-152.06l200.55 -121.07c49,106.3 64.61,205.27 47.32,296.92 -17.41,91.39 -69.53,175.46 -156.6,251.94 -98.47,86.69 -203.07,120.94 -313.32,102.77 -110.6,-18.18 -211.6,-89.17 -303.47,-212.72 -92.83,-124.99 -135.46,-248.02 -128.38,-369.35 7.21,-121.46 60.89,-226.32 161.28,-314.57 82.03,-72.17 162.13,-109.69 240.07,-112.83 77.82,-3 157.2,26.67 238.62,89.04zm238.86 -223.31l-180.02 119.5c-40.59,-87.86 -53.32,-169.58 -38.42,-245.01 14.89,-75.31 64.48,-154.02 148.55,-235.6 76.38,-74.13 141.59,-119.37 195.75,-135.45 53.92,-15.95 101.36,-15.95 142.07,0.65 40.71,16.48 95.23,66.03 163.56,149.57l180.5 226.19c52.12,63.67 93.19,108.12 123.45,133.09 30.27,25.11 66.89,47.72 110.13,67.6l-169.93 164.73c-14.53,-8.36 -35.43,-21.57 -62.21,-40 -12.01,-8.76 -20.18,-14.12 -24.26,-16.48 -2.88,60.4 -14.41,114.66 -34.58,163.04 -20.18,48.5 -48.88,90.86 -86.71,127.47 -66.29,64.33 -135.34,95.05 -206.8,91.65 -71.45,-3.14 -132.46,-35.95 -183.14,-97.92 -33.38,-40.8 -54.64,-85.9 -63.53,-135.06 -8.64,-48.77 -4.44,-97.27 13.21,-144.86 17.66,-47.46 50.8,-106.43 99.56,-176.9 66.41,-94.26 108.92,-163.95 127.9,-208.4l-15.86 -19.35c-30.5,-37.26 -60.28,-55.96 -89.82,-56.22 -29.31,0.13 -66.65,21.96 -111.81,65.76 -30.62,29.68 -48.88,59.62 -54.64,89.95 -6.25,30.2 -0.36,67.6 17.05,112.05zm356.91 -67.73c-15.13,29.42 -42.03,72.96 -80.34,130.62 -38.07,57.52 -60.16,98.97 -65.93,123.68 -7.56,39.61 -0.48,73.08 21.74,100.28 22.1,27.06 49.96,41.31 83.94,43.67 33.87,2.09 64.73,-10.07 92.35,-37 30.87,-29.81 51.04,-69.95 60.53,-119.76 6.37,-37.53 2.88,-71.78 -11.17,-103.29 -9.01,-20.53 -32.3,-54 -69.77,-99.89l-31.35 -38.31zm266.13 -992.46l131.26 145.77 -112.41 119.9 253.16 281.09c51.39,57.01 82.26,89.17 92.95,96.23 10.68,6.93 22.33,9.67 35.78,7.58 12.97,-1.96 24.98,-8.63 35.91,-20.39 15.37,-16.35 31.95,-45.5 50.2,-88.12l142.19 128.12c-21.5,58.71 -56.21,113.75 -104.48,165.13 -29.54,31.64 -61.01,54.26 -94.75,68.38 -33.63,14.12 -64.01,18.17 -90.91,12.29 -27.14,-6.01 -56.21,-21.83 -87.79,-47.46 -22.7,-17.65 -63.65,-58.96 -122.37,-124.34l-273.57 -303.84 -75.3 80.27 -131.26 -145.64 75.3 -80.41 -124.06 -137.67 66.05 -283.06 221.69 246.06 112.41 -119.89zm-9.97 -185.4l-160.2 -161.73 155.88 -183.04 160.08 161.73 -155.76 183.04zm743.01 750.07l-654.74 -661.03 155.88 -182.91 654.74 660.9 -155.88 183.04zm-64.13 -643.25c-60.17,-55.17 -106.16,-124.07 -138.11,-206.83 -32.06,-83.16 -40.47,-166.7 -25.7,-251.03 14.77,-84.59 49.24,-162.12 104,-232.98 84.67,-109.44 187.35,-167.88 308.64,-176.38 121.29,-8.1 232.98,34.78 335.53,128.92 103.4,94.92 162.01,208.79 175.46,341.5 13.45,132.96 -21.26,252.72 -104,359.8 -51.16,66.16 -114.33,116.36 -189.15,150.48 -74.69,34 -151.43,41.71 -230.57,22.75 -78.9,-18.82 -157.56,-64.32 -236.1,-136.23zm161.64 -187.62c67.85,62.11 132.82,92.83 195.03,91.92 62.57,-1.05 113.01,-26.28 151.56,-76.23 38.42,-49.68 52.84,-107.99 42.63,-174.8 -9.85,-66.68 -49.24,-131.66 -117.93,-194.54 -66.77,-61.32 -131.5,-91.66 -193.47,-91.13 -62.21,0.65 -112.53,25.88 -150.95,75.57 -38.67,49.94 -52.96,108.25 -43.36,175.45 9.85,66.94 48.76,131.53 116.49,193.76z"/>
   <path class="fil1" d="M28371.88 21928.01l-139.07 198.21 -361.6 -300.71c-76.49,-63.67 -129.09,-100.54 -157.44,-110.61 -28.7,-10.07 -55.48,-10.72 -81.66,-1.96 -26.06,8.89 -48.52,26.93 -67.49,53.99 -24.26,34.65 -37.11,73.22 -38.79,115.58 -1.68,42.49 8.77,80.93 30.86,115.45 22.22,34.77 72.78,84.98 152.04,151l320.64 266.85 -139.06 198.21 -709.38 -590.31 128.98 -183.69 103.99 86.55c-33.14,-131.92 -14.77,-247.76 55.49,-347.77 30.86,-43.93 66.65,-77.93 107,-102.11 40.83,-24.06 79.02,-35.83 115.05,-35.31 36.5,0.53 71.81,9.29 106.28,26.42 34.7,16.99 79.02,48.37 133.78,93.87l440.38 366.34zm389.45 -632.01l-1045.15 -709.54 205.23 -358.37c77.7,-135.71 133.3,-220.56 167.29,-254.81 52.36,-52.56 116.73,-82.5 193.83,-89.56 76.98,-7.19 157.08,17.52 240.3,74.13 64.25,43.53 110.97,92.3 140.75,146.56 29.66,54.52 45.99,108.91 49.36,163.82 3.24,54.78 -2.41,104.59 -16.82,149.18 -20.53,60.14 -59.56,140.55 -117.33,241.61l-83.22 145.26 394.14 267.63 -128.38 224.09zm-740.24 -813.74l297.83 202.12 69.89 -121.72c50.32,-87.99 78.18,-150.22 84.06,-187.35 6.13,-37 2.28,-71.78 -11.65,-104.46 -13.81,-32.69 -35.9,-59.49 -67.01,-80.67 -38.19,-25.89 -76.5,-35.3 -114.68,-28.77 -38.43,6.8 -70.98,25.89 -98,57.92 -19.93,23.41 -52.84,75.05 -98.84,155.46l-61.6 107.47zm1430.05 -452.77l-950.29 -141.85 117.69 -229.06 477.37 86.81 156 35.95c-27.62,-32.55 -45.88,-53.86 -55.25,-63.27 -18.13,-20.79 -36.26,-41.84 -53.92,-63.68l-316.8 -399.55 115.17 -224.22 610.91 802.24 -100.88 196.63zm-307.44 -1490.46l167.65 90.99 -70.01 153.37 323.65 175.45c65.69,35.7 104.6,55.04 116.6,57.92 12.25,2.88 24.26,1.18 36.27,-5.49 11.77,-6.54 21.02,-17.13 27.74,-32.03 9.61,-21.05 16.58,-54.39 21.02,-101.33l172.93 70.47c-2.76,63.28 -19.09,127.61 -49.24,193.37 -18.37,40.27 -41.19,72.96 -68.93,98.32 -27.5,25.36 -55.12,40.01 -82.26,43.93 -27.5,4.05 -59.69,-0.52 -97.16,-13.47 -26.78,-8.76 -77.81,-33.21 -152.99,-74l-349.83 -189.71 -47.07 102.64 -167.65 -91 46.95 -102.63 -158.76 -86.03 -22.46 -291.03 283.42 153.62 70.13 -153.36zm856.38 271.81l-215.81 -103.29 92.35 -228.53 215.81 103.28 -92.35 228.54zm373.36 -939.65l-1160.2 -415.63 75.78 -250.89 962.53 344.9 187.82 -621.16 197.67 70.86 -263.6 871.92zm-432.57 -1721.49l180.86 54.26 -41.91 165.13 348.38 104.86c70.86,21.18 112.41,32.16 124.78,32.42 12.49,0.26 23.9,-3.92 34.59,-12.94 10.32,-8.89 17.65,-21.18 21.73,-37.26 5.53,-22.62 6.61,-56.88 2.64,-103.81l182.06 33.2c8.41,62.63 3.73,129.18 -14.17,200.04 -11.05,43.28 -27.74,80.15 -50.32,110.74 -22.69,30.72 -47.07,50.73 -73.01,60.4 -26.3,9.68 -58.73,11.9 -97.88,6.93 -27.86,-2.87 -82.26,-16.34 -163.08,-40.66l-376.85 -113.35 -27.98 110.47 -180.74 -54.25 27.98 -110.61 -170.77 -51.38 -73.25 -280.97 305.15 91.78 41.79 -165zm1095.48 -750.98l-46.48 225.79 -127.89 -31.25c42.03,49.82 70.13,103.68 84.66,161.08 14.41,57.26 16.33,112.04 5.52,164.34 -21.85,106.3 -80.94,187.36 -177.37,243.44 -96.43,55.83 -216.65,66.29 -361.36,30.99 -147.71,-36.08 -252.67,-100.28 -314.4,-192.84 -61.72,-92.44 -80.94,-194.94 -57.64,-307.51 21.26,-103.03 80.22,-182.65 176.53,-238.08l-433.65 -105.91 50.2 -243.57 1201.88 293.52zm-586.41 540.1c93.07,22.75 163.45,25.62 210.64,8.89 68.57,-24.71 110.13,-72.17 124.54,-142.64 11.65,-55.96 -1.08,-109.3 -38.55,-159.38 -37.23,-50.47 -100.52,-86.55 -190.71,-108.52 -100.27,-24.44 -176.41,-23.14 -228.65,4.19 -52,27.45 -84.19,70.6 -96.44,130.09 -11.89,57.79 0.12,111.52 35.67,161.2 35.67,49.55 96.79,84.99 183.5,106.17zm635.41 -777.92l-230.1 -56.22 50.2 -243.45 229.97 56.09 -50.07 243.58z"/>
  </g>
 </g>
</svg>
