<?xml version="1.0" encoding="UTF-8"?>
<!DOCTYPE svg PUBLIC "-//W3C//DTD SVG 1.1//EN" "http://www.w3.org/Graphics/SVG/1.1/DTD/svg11.dtd">
<!-- Creator: CorelDRAW -->
<svg xmlns="http://www.w3.org/2000/svg" xml:space="preserve" width="276.162mm" height="97.6878mm" version="1.1" style="shape-rendering:geometricPrecision; text-rendering:geometricPrecision; image-rendering:optimizeQuality; fill-rule:evenodd; clip-rule:evenodd"
viewBox="0 0 27615.08 9768.4"
 xmlns:xlink="http://www.w3.org/1999/xlink"
 xmlns:xodm="http://www.corel.com/coreldraw/odm/2003">
 <defs>
  <style type="text/css">
   <![CDATA[
    .fil0 {fill:#003399}
    .fil1 {fill:#003399;fill-rule:nonzero}
   ]]>
  </style>
 </defs>
 <g id="Layer_x0020_1">
  <metadata id="CorelCorpID_0Corel-Layer"/>
  <g id="_2036430787456">
   <polygon class="fil0" points="534.25,2665.51 1224.85,2665.51 1224.85,2906.71 534.25,2906.71 "/>
   <polygon class="fil0" points="2646.32,5020.12 2646.32,4329.51 2887.58,4329.51 2887.58,5020.12 "/>
   <polygon class="fil0" points="4311.76,2665.51 5002.37,2665.51 5002.37,2906.71 4311.76,2906.71 "/>
   <path class="fil0" d="M2765.61 0.01c1523.22,0 2765.62,1242.34 2765.62,2765.68 0,1523.22 -1242.4,2765.56 -2765.62,2765.56 -1523.27,0 -2765.61,-1242.34 -2765.61,-2765.56 0,-1523.34 1242.34,-2765.68 2765.61,-2765.68zm0 333c1339.81,0 2432.62,1092.82 2432.62,2432.68 0,1339.76 -1092.82,2432.56 -2432.62,2432.56 -1339.86,0 -2432.61,-1092.81 -2432.61,-2432.56 0,-1339.87 1092.76,-2432.68 2432.61,-2432.68z"/>
   <path class="fil0" d="M2765.61 1946.11c457.05,0 788.48,375.33 796.71,797.75l-305.55 0c-9.44,-246.71 -196.5,-493.36 -491.16,-492.9 -278.21,0.41 -489.18,233.62 -492.66,494.98l-304.74 -3.24c5.51,-432.32 351.48,-796.59 797.4,-796.59z"/>
   <path class="fil0" d="M4340.2 2383.93c-30.35,8.81 -59.19,6.03 -86.76,-8.28 -27.45,-14.48 -45.75,-36.54 -54.55,-66.08 -8.86,-29.59 -5.56,-57.86 9.9,-84.56 15.46,-26.81 37.99,-44.59 67.93,-53.45 29.89,-8.63 58.61,-5.79 86.12,8.51 27.51,14.13 45.64,36.08 54.5,65.68 8.8,29.59 5.68,57.8 -9.55,84.73 -15.24,26.87 -37.76,44.71 -67.59,53.45z"/>
   <path class="fil0" d="M4193.11 1997.77c-12.05,9.67 -36.03,24.73 -72.05,45.58 -38.98,22.76 -63.42,34.69 -73.2,36.25 -7.94,0.81 -14.43,-1.68 -19.12,-7.59 -1.91,-2.49 -4.92,-7.06 -8.68,-13.66 -13.5,-22.48 -59.42,-83.29 -137.95,-182.2 -17.08,-21.54 -42.45,-53.74 -75.98,-96.6 -33.42,-42.62 -58.67,-74.65 -75.52,-95.96 -7.42,-9.27 -7.07,-17.09 1.16,-23.52 31.39,-24.96 79.74,-60.58 145.41,-107.14 65.68,-46.27 114.21,-82.01 145.59,-106.91 31.79,-25.37 89.94,-74.31 174.49,-146.81 21.71,-18.64 53.86,-46.79 96.71,-84.26l5.56 -5.16c5.97,-5.67 11.88,-4.69 17.9,2.84 16.5,20.85 40.65,52.42 72.68,94.75 31.85,42.45 56.01,74.02 72.51,94.87 16.16,20.32 41.24,50.73 75.06,90.92 33.65,40.37 58.72,70.72 75,91.28 11.52,14.42 12.8,27.27 3.7,38.16 -5.44,6.37 -23.22,24.1 -53.51,52.99 -30.29,28.73 -48.82,46.11 -55.83,51.66 -5.85,4.64 -11.18,4.17 -15.58,-1.39 -1.39,-1.73 -3.53,-4.74 -6.54,-9.09 -53.05,-79.46 -103.09,-148.89 -150.16,-208.31 -11.76,-14.71 -22.65,-21.08 -32.26,-18.82 -4.46,1.22 -15.76,9.03 -34,23.46 -19.05,15.11 -29.36,28.03 -31.1,38.51 -1.56,9.03 3.01,20.1 13.73,33.53 2.25,2.84 6.77,8.17 13.55,15.87 6.95,7.88 12.39,14.54 16.62,19.81 28.03,35.21 57.39,70.13 88.09,104.71 2.78,2.89 9.55,9.9 20.5,21.37 8.63,8.8 15.12,15.81 19.52,21.43 5.38,6.66 4.98,12.62 -1.51,17.78 5.91,-4.69 -17.66,9.84 -70.25,43.43 -24.32,15.52 -47.49,32.32 -69.84,50.1 -5.62,4.4 -11.76,2.55 -18.13,-5.5 0,0 -8.63,-13.73 -25.77,-41.3 -11.07,-17.14 -39.15,-54.26 -84.33,-111.13l-35.33 -44.43c-9.09,-11.52 -17.2,-16.1 -24.38,-13.66 -1.62,0.92 -10.48,7.7 -26.41,20.32 -21.37,16.92 -33.82,29.19 -37.87,36.78 -6.72,13.32 1.21,36.31 23.8,68.86 -0.35,-0.46 15.81,19.87 48.71,61.39 11.87,14.83 30.57,35.74 56.64,63.01 25.83,27.17 44.65,48.01 56.17,62.44 4.87,6.25 2.26,13.49 -7.81,21.37z"/>
   <path class="fil0" d="M3686.54 1448.11c-16.27,26.59 -39.61,43.67 -70.01,51.72 -30.41,7.82 -59.37,4.06 -86.53,-11.35 -27.28,-15.46 -44.54,-38.11 -51.72,-67.64 -7.29,-29.71 -3.07,-57.63 13.03,-83.92 15.99,-26.12 39.27,-43.15 69.68,-51.2 30.23,-8.11 58.95,-4.28 86.23,11.18 27.16,15.4 44.65,37.93 52.18,67.59 7.41,29.47 3.19,57.45 -12.86,83.62z"/>
   <path class="fil0" d="M3334.09 1341.79c-1.51,11.12 -7.48,15.81 -17.67,14.42l-188.15 -24.9c-10.37,-1.39 -14.66,-8.17 -12.98,-20.73 4.75,-35.74 13.09,-89.31 25.31,-160.42 12.05,-71.41 20.62,-124.92 25.31,-160.7 1.39,-10.25 0.46,-15.93 -2.66,-17.15 -4.12,1.68 -35.16,53.4 -92.96,155.09 -33.94,59.54 -67.87,119.13 -101.58,178.6 -4.69,7.47 -9.67,11.82 -15.17,12.57 -1.86,0.06 -8.98,-0.64 -21.49,-2.32 -18.3,-2.43 -28.9,-7.47 -31.39,-15.06 -14.07,-41.52 -31.62,-101.52 -52.99,-180.22 -22.99,-82.99 -40.48,-143.33 -52.36,-180.57 -0.52,-1.85 -1.91,-3.88 -4.11,-6.43 -2.78,2.78 -4.75,7.82 -5.67,14.95 -4.64,34.63 -10.6,86.87 -18.19,156.65 -7.41,69.73 -13.38,121.97 -17.95,156.59 -1.68,12.57 -7.42,18.01 -17.38,16.68l-177.5 -23.51c-7.24,-0.87 -11.29,-2.55 -12.62,-5.1 -1.33,-2.67 -1.51,-6.66 -0.75,-12.28 5.09,-38.74 14.65,-96.54 28.49,-173.33 14.07,-77.03 23.57,-134.87 28.73,-173.56 5.38,-41.06 13.78,-118.44 25.3,-231.94 3.54,-29.42 7.76,-73.55 12.51,-132.04l0.7 -9.09c0.75,-7.12 8.63,-9.55 23.86,-7.59 19.46,2.61 48.76,5.74 87.91,9.68 39.21,3.99 68.52,7.12 87.92,9.78 3.99,0.47 8.45,8.69 13.61,24.5l110.21 361.44c7.82,24.5 15.52,37.24 22.99,38.28 3.83,0.46 13.96,-11.87 30.35,-36.66 45.58,-69.61 113.46,-174.95 203.56,-315.63 7.82,-12.97 15.29,-18.99 22.36,-18.01 10.3,1.33 25.71,3.94 46.21,7.76 20.74,3.88 36.26,6.43 46.97,7.82 8.75,1.22 22.47,2.09 41.06,2.72 18.36,0.58 32.09,1.45 41.01,2.67 10.54,1.39 15.4,6.43 14.24,14.94 -5.5,41.81 -15.4,103.96 -29.3,186.77 -14.13,82.76 -23.86,145.12 -29.42,186.82 -5.1,38.74 -11.12,96.78 -18.3,174.49 -6.95,77.78 -12.98,135.74 -18.01,174.02z"/>
   <path class="fil0" d="M2388.43 1216.75c7.48,30.06 3.07,57.98 -13.08,84.04 -16.34,25.89 -39.91,42.62 -70.66,49.69 -30.87,7.07 -59.65,2.43 -86.18,-14.02 -26.75,-16.44 -43.84,-39.2 -51.25,-68.91 -7.36,-29.48 -2.9,-57.22 13.26,-83.34 15.98,-26.01 39.44,-42.46 70.31,-49.58 30.75,-7.12 59.65,-2.61 86.47,13.55 26.69,16.33 43.78,39.1 51.13,68.57z"/>
   <path class="fil0" d="M1892.01 1094.79c20.04,37.07 51.31,92.38 93.59,165.81 42.16,73.55 73.43,128.85 93.47,165.91 3.42,6.31 4.17,11.12 2.2,14.02 -0.46,0.69 -4.28,3.53 -11.17,8.63 -19.06,13.55 -45.81,29.53 -80.1,48.12 -45.87,24.85 -75.75,39.62 -89.71,43.85 -10.25,3.07 -17.37,0.63 -21.66,-7.19 2.72,4.99 -10.71,-23.39 -40.71,-85.25 -63.42,-130.35 -105.87,-215.55 -127.47,-255.51 -18.25,-33.59 -46.8,-83.63 -85.26,-149.52 -38.68,-66.14 -67.23,-116.01 -85.48,-149.65 -3.7,-6.89 -1.85,-12.33 5.21,-16.21 9.85,-5.27 24.73,-12.74 44.83,-22.53 20.16,-9.73 35.21,-17.26 44.88,-22.47 9.79,-5.33 23.87,-13.61 42.34,-24.79 18.71,-11.24 32.78,-19.52 42.45,-24.79 9.15,-4.92 15.52,-3.94 19.29,2.96 18.24,33.64 43.84,85.13 76.73,154.27 32.73,69.21 58.33,120.7 76.57,154.33z"/>
   <path class="fil0" d="M1741.6 1599.85c22.36,22.18 33.48,48.65 33.65,79.23 -0.06,30.64 -11.23,56.76 -33.65,78.18 -22.53,21.61 -49.51,31.86 -80.9,30.93 -31.51,-0.93 -58.27,-12.16 -80.33,-34.11 -22.01,-21.83 -33.01,-48.07 -33.19,-78.65 -0.29,-30.52 10.89,-56.52 33.42,-78.01 22.41,-21.43 49.4,-31.97 80.91,-31.39 31.33,0.81 58.14,12.05 80.09,33.82z"/>
   <path class="fil0" d="M1022.33 1639.47c6.6,2.54 8.63,7.47 5.73,14.82 -5.03,12.8 -27.39,61.86 -66.77,147.27 83.28,35.21 141.65,59.48 174.83,72.57 39.15,15.4 98.86,37.24 179.01,65.09 80.09,27.98 139.8,49.75 178.95,65.16 6.31,2.49 9.78,5.67 10.13,9.38 0.35,1.1 -0.69,6.14 -2.95,14.88 -5.16,21.03 -15.52,50.8 -30.76,89.31 -16.91,42.91 -30,72.57 -39.49,88.67 -5.45,8.68 -12.34,11.35 -21.03,7.93 -39.21,-15.46 -97.53,-40.31 -174.66,-74.65 -77.2,-34.29 -135.45,-59.25 -174.66,-74.65 -25.83,-10.31 -84.32,-31.8 -175.24,-64.69 -19.63,69.2 -37.12,123.53 -52.76,163.19 -2.08,5.27 -4.86,7.36 -8.11,5.97 -4.46,-1.74 -16.27,-9.1 -35.73,-22.13 -21.2,-14.65 -34.17,-23.11 -38.86,-25.77 -15.23,-7.18 -30.29,-14.48 -45.47,-21.83 -24.09,-12.28 -34.92,-21.37 -32.72,-26.93 0.29,-0.7 1.34,-2.84 3.3,-6.78 28.21,-51.02 63.07,-129.43 104.71,-234.84 11.82,-29.94 30.53,-86.35 56.07,-169.33 13.66,-44.65 20.56,-67.12 20.67,-67.47 2.61,-6.66 4.63,-10.19 5.85,-10.89 1.27,-0.69 4.81,-0.06 10.54,1.8 9.04,3.59 21.31,8.8 37.07,15.81 17.26,7.64 29.59,12.85 36.89,15.75 8.34,3.36 21.02,7.18 38.05,11.35 16.91,4.06 29.36,7.82 37.41,11.01z"/>
   <path class="fil0" d="M2765.61 1785.23c539.98,0 980.35,440.48 980.35,980.46 0,539.86 -440.37,980.35 -980.35,980.35 -539.97,0 -980.34,-440.49 -980.34,-980.35 0,-539.98 440.37,-980.46 980.34,-980.46zm0 -266.23c686.61,0 1246.57,560.02 1246.57,1246.69 0,686.55 -559.96,1246.57 -1246.57,1246.57 -686.6,0 -1246.62,-560.02 -1246.62,-1246.57 0,-686.67 560.02,-1246.69 1246.62,-1246.69z"/>
   <polygon class="fil0" points="2768.28,3537.03 2649.74,2893.28 2531.18,2249.45 2768.28,2249.45 3005.43,2249.45 2886.89,2893.28 "/>
   <path class="fil0" d="M10252.32 1243.8c0,50.73 -27.57,76.8 -84.04,76.8 -98.45,0 -484.43,-19.52 -1157.95,-57.28 -15.75,642.3 -23.63,1090.85 -23.63,1344.39 0,298.94 11.81,750.08 36.77,1352.09 24.91,602.01 36.72,1053.09 36.72,1352.15 0,48.07 -11.81,79.23 -35.44,91.04 -6.55,5.1 -43.32,11.64 -107.66,19.4 -153.58,20.91 -379.39,30 -676.13,30 -330.86,0 -563.2,-9.09 -695.82,-30 -72.22,-12.97 -107.66,-51.95 -107.66,-118.32 0,-298.94 11.81,-748.87 38.11,-1348.15 24.9,-599.34 38.05,-1049.27 38.05,-1348.21 0,-197.71 -10.49,-639.7 -30.23,-1326.21 -513.34,50.79 -921.62,76.74 -1227.52,76.74 -40.71,0 -61.73,-12.97 -61.73,-37.64 0,-33.83 18.41,-131.35 53.86,-293.86 41.99,-178.13 64.34,-286.03 69.55,-323.79 7.94,-119.53 17.09,-237.85 26.3,-357.5 18.36,-191.05 49.86,-285.97 93.18,-285.97 5.27,0 22.36,1.21 53.86,3.88 414.88,53.28 1029.28,79.23 1841.97,79.23 231.07,0 656.38,-23.4 1277.44,-71.47 333.46,-25.95 501.52,-38.98 504.18,-38.98 51.26,0 80.04,3.94 87.92,10.37 7.87,6.49 13.14,31.27 15.75,74.13 0,68.92 -2.61,163.83 -7.88,286.03 -5.21,133.89 -7.87,228.81 -7.87,284.76 0,63.71 7.87,157.29 24.96,280.82 17.08,122.14 24.96,214.51 24.96,275.55zm3002.76 1363.91c0,298.94 7.88,750.08 23.63,1352.09 14.42,602.01 22.3,1053.09 22.3,1352.15 0,50.73 -11.76,83.17 -34.11,94.92 -5.22,2.55 -39.39,7.76 -99.79,15.52 -166.73,20.91 -389.92,30 -669.58,30 -903.72,0 -830.47,0.47 -793,-817.78 45.99,-1028.48 69.61,-1704.55 69.61,-2026.89 0,-271.73 -9.2,-680.01 -26.23,-1222.19 -18.42,-543.46 -27.57,-951.62 -27.57,-1223.35 0,-55.94 30.18,-83.28 87.92,-83.28 80.09,0 199.62,4 359.75,10.42 160.19,7.82 280.94,11.7 359.76,11.7 80.1,0 196.9,-3.88 351.82,-11.7 156.25,-6.42 273.18,-10.42 351.88,-10.42 74.83,0 111.61,27.34 111.61,83.28 0,271.73 -14.43,679.89 -43.33,1223.35 -30.23,542.18 -44.65,950.46 -44.65,1222.19zm7549.3 2696.35c0,79.4 -38.05,118.32 -111.6,118.32l-1361.47 0c-74.82,0 -111.6,-44.19 -111.6,-133.83 0,-256.15 9.15,-640.97 28.9,-1153.27 18.36,-513.51 28.9,-898.34 28.9,-1154.43 0,-74.19 -11.81,-113.1 -35.5,-118.37 -27.57,15.63 -199.51,408.28 -514.61,1177.88 -185.15,451.14 -370.24,902.28 -554.05,1352.21 -26.24,57.16 -57.8,92.26 -95.85,102.62 -13.15,2.67 -64.35,3.94 -154.86,3.94 -132.67,0 -212.77,-26 -237.67,-76.74 -139.16,-279.48 -320.37,-685.1 -546.17,-1219.46 -241.61,-562.92 -422.76,-971.2 -542.24,-1222.08 -5.27,-13.03 -17.09,-26 -35.44,-41.64 -17.09,22.07 -26.3,59.83 -26.3,110.56 0,248.33 6.6,621.41 18.42,1119.4 13.15,497.94 19.69,871.07 19.69,1119.4 0,89.65 -35.44,133.83 -107.66,133.83l-1283.98 0c-52.53,0 -82.71,-7.76 -94.58,-24.61 -11.75,-16.91 -17.02,-45.52 -17.02,-85.83 0,-277 13.08,-692.98 39.38,-1246.8 27.56,-555.16 40.71,-971.2 40.71,-1248.2 0,-293.79 -13.15,-846.28 -38.11,-1656.25 -2.6,-210.62 -14.42,-525.33 -35.44,-941.37l-3.94 -64.92c-1.33,-50.73 52.59,-75.52 162.79,-75.52 140.49,0 351.88,-5.1 634.15,-14.31 282.26,-7.76 493.59,-12.97 634.14,-12.97 28.85,0 68.23,53.4 119.42,159.95l1123.86 2441.6c78.76,165.16 145.76,248.39 199.56,248.39 27.51,0 87.98,-96.26 181.15,-286.03 258.64,-533.09 642.02,-1337.85 1150.15,-2411.73 43.26,-98.8 90.58,-148.25 141.77,-148.25 74.88,0 186.41,3.94 336.12,11.7 150.98,7.76 263.85,11.64 341.34,11.64 63.01,0 161.46,-6.43 294.08,-19.4 131.29,-13.03 229.74,-19.58 294.09,-19.58 76.21,0 115.48,31.22 115.48,92.38 0,298.94 -11.76,746.2 -32.78,1341.72 -22.3,595.46 -32.84,1043.94 -32.84,1342.94 0,277 11.82,691.71 34.17,1245.53 23.63,553.88 35.44,967.32 35.44,1241.59zm5683.66 -1066c0,109.17 -22.3,309.37 -65.62,601.89 -45.98,317.25 -87.97,505.75 -123.36,566.91 -30.29,48.01 -73.61,72.8 -127.41,72.8 -22.35,0 -61.74,-3.88 -115.54,-11.76 -186.42,-24.61 -732.59,-37.64 -1638.46,-37.64 -196.96,0 -491.04,-1.27 -880.97,-3.94 -388.65,-2.6 -681.4,-3.94 -875.7,-3.94 -85.37,0 -127.36,-36.37 -127.36,-110.44 0,-284.7 15.81,-711.22 47.26,-1281.9 32.84,-569.46 48.59,-997.26 48.59,-1281.9 0,-288.7 -15.75,-828.21 -45.98,-1618.66 -7.88,-202.81 -22.24,-505.76 -41.99,-910.16l-3.94 -53.28c-5.27,-58.55 26.23,-87.16 95.85,-87.16 190.35,0 475.23,5.21 856.01,14.3 380.72,10.49 665.64,15.7 856.01,15.7 186.41,0 468.68,-5.21 845.46,-15.7 376.85,-9.09 659.1,-14.3 846.8,-14.3 132.62,0 210.11,49.52 231.07,148.31 11.82,58.49 31.51,235.24 59.14,531.76 26.23,295.12 40.65,474.53 40.65,538.24 0,53.28 -26.23,80.62 -77.43,80.62 -15.75,0 -42.05,-1.39 -80.1,-3.94 -682.72,-55.95 -1295.85,-84.56 -1839.36,-84.56 -135.22,0 -219.25,32.49 -249.43,96.2 -13.09,30 -19.69,127.47 -19.69,292.52 0,172.92 26.24,287.42 77.43,343.25 43.27,48.18 126.08,71.58 249.49,71.58 26.24,0 76.1,-1.33 149.64,-5.21 74.83,-3.88 136.56,-5.21 185.09,-5.21 322.98,0 649.89,-9.09 980.75,-27.28 28.89,-2.66 98.45,-9.09 211.37,-19.58 87.98,-9.09 156.25,-14.3 207.45,-14.3 61.67,0 93.18,28.67 93.18,87.1 0,-53.22 -23.63,141.77 -69.56,582.49 -21.02,204.14 -30.17,406.95 -30.17,609.77 0,50.73 -38.11,76.68 -111.66,76.68l-346.55 -38.92c-145.76,-14.3 -479.23,-22.12 -1000.44,-22.12l-407.06 0c-104.94,0 -166.67,24.61 -185.03,75.4 -2.66,12.98 -3.94,92.32 -3.94,236.63 0,193.72 13.09,317.19 38.05,373.14 111.89,241.09 847.61,171.59 1054.24,171.59 136.56,0 337.4,-11.75 606.58,-36.43 267.79,-23.39 468.63,-36.42 601.37,-36.42 56.41,0 85.25,46.85 85.25,137.88z"/>
   <path class="fil0" d="M10669.86 5145.56c0,74.65 -26.23,138.06 -78.3,190.88 -52.41,52.24 -116.23,78.88 -191.05,78.88 -75.11,0 -138.58,-26.64 -190.24,-79.75 -52.06,-52.99 -78.3,-116.12 -78.3,-190.01 0,-73.49 26.24,-136.61 78.3,-189.37 51.66,-52.65 115.14,-78.82 190.24,-78.82 74.83,0 138.64,26.17 191.05,78.82 52.07,52.76 78.3,115.89 78.3,189.37z"/>
   <path class="fil0" d="M14394.05 5145.62c0,67.24 -23.57,124.34 -70.42,171.71 -47.2,47.2 -104.65,71 -171.94,71 -67.64,0 -124.69,-23.8 -171.19,-71.7 -46.85,-47.72 -70.42,-104.48 -70.42,-171.01 0,-66.2 23.57,-122.9 70.42,-170.44 46.51,-47.37 103.56,-70.88 171.19,-70.88 67.3,0 124.75,23.51 171.94,70.88 46.85,47.55 70.42,104.25 70.42,170.44z"/>
   <path class="fil0" d="M21879.53 5145.62c0,67.24 -23.57,124.34 -70.42,171.71 -47.2,47.2 -104.65,71 -171.94,71 -67.65,0 -124.75,-23.8 -171.24,-71.7 -46.86,-47.72 -70.43,-104.48 -70.43,-171.01 0,-66.2 23.57,-122.9 70.43,-170.44 46.5,-47.37 103.6,-70.88 171.24,-70.88 67.3,0 124.75,23.51 171.94,70.88 46.85,47.55 70.42,104.25 70.42,170.44z"/>
   <path class="fil0" d="M27525.89 5145.62c0,67.24 -23.63,124.34 -70.48,171.71 -47.2,47.2 -104.65,71 -171.94,71 -67.7,0 -124.75,-23.8 -171.19,-71.7 -46.96,-47.72 -70.54,-104.48 -70.54,-171.01 0,-66.2 23.58,-122.9 70.54,-170.44 46.45,-47.37 103.5,-70.88 171.19,-70.88 67.3,0 124.75,23.51 171.94,70.88 46.85,47.55 70.48,104.25 70.48,170.44z"/>
   <path class="fil1" d="M4560.38 7435.84m449.69 0l0 -1166.83 -449.69 0 0 -155.08 1080.42 0 0 155.08 -449.69 0 0 1166.83 -181.03 0z"/>
   <path class="fil1" d="M5733.46 7435.84m0 0l0 -958.23 150.51 0 0 145.88c38.05,-66.49 74.31,-112.64 106.68,-132.96 32.44,-22.13 68.63,-33.24 108.59,-33.24 55.31,0 112.47,16.62 171.54,51.71l-59.08 149.53c-41.93,-22.12 -81.95,-33.24 -121.96,-33.24 -36.2,0 -70.49,11.12 -99.1,31.39 -28.55,22.18 -49.51,51.71 -60.92,88.66 -19.11,57.22 -28.61,121.86 -28.61,190.13l0 500.37 -167.66 0zm636.35 0m0 -1137.3l0 -184.62 167.71 0 0 184.62 -167.71 0zm0 1137.3l0 -958.23 167.71 0 0 958.23 -167.71 0zm419.17 0m649.77 0l0 -142.18c-76.27,108.94 -181.03,162.5 -312.55,162.5 -59.02,0 -112.42,-11.12 -163.89,-33.24 -49.46,-20.33 -87.57,-48.01 -112.36,-81.25 -22.87,-33.25 -40.02,-71.99 -51.42,-120 -5.74,-31.39 -9.56,-83.11 -9.56,-151.38l0 -592.69 167.65 0 0 529.91c0,84.9 3.83,142.17 9.56,171.7 11.47,42.46 34.28,75.7 68.57,99.68 32.43,24.03 74.3,36.95 125.79,36.95 49.52,0 97.18,-12.92 140.96,-36.95 43.84,-25.83 74.36,-59.08 93.35,-101.53 17.15,-44.3 26.7,-105.23 26.7,-188.33l0 -511.43 167.66 0 0 958.23 -150.46 0zm413.44 0m0 0l0 -958.23 150.57 0 0 134.76c30.46,-46.16 72.33,-84.9 123.82,-112.59 51.43,-27.74 110.5,-42.5 175.3,-42.5 72.33,0 133.36,14.76 179.12,44.3 47.6,29.59 79.98,70.19 99.03,123.71 79.98,-112.59 181.03,-168 306.77,-168 99.09,0 175.29,25.88 226.72,79.4 53.4,51.71 80.04,132.96 80.04,241.9l0 657.25 -167.65 0 0 -603.75c0,-64.63 -5.74,-110.79 -17.15,-140.32 -9.55,-27.68 -30.46,-49.86 -59.07,-68.28 -28.61,-16.62 -60.98,-25.89 -100.94,-25.89 -68.63,0 -127.71,22.18 -173.39,66.49 -45.81,46.16 -68.63,116.29 -68.63,216.01l0 555.74 -167.71 0 0 -622.22c0,-71.99 -13.32,-125.56 -39.96,-162.45 -28.61,-35.09 -72.45,-53.57 -135.34,-53.57 -45.69,0 -89.54,11.12 -129.55,35.1 -39.96,23.98 -68.57,59.07 -87.62,107.08 -17.14,46.16 -26.64,112.65 -26.64,199.4l0 496.66 -167.71 0zm1587.15 0m0 367.4l0 -1325.63 152.42 0 0 125.56c36.2,-48.01 76.22,-84.96 121.97,-108.93 45.7,-24.04 101,-36.95 163.83,-36.95 85.72,0 160.07,20.32 224.88,62.78 62.83,42.5 112.35,101.58 144.71,177.26 32.44,77.55 49.58,160.59 49.58,252.91 0,96.02 -17.14,184.62 -53.34,264.02 -36.2,77.55 -89.59,136.61 -158.1,179.12 -70.54,42.46 -142.92,62.78 -219.19,62.78 -55.2,0 -104.77,-11.12 -150.46,-35.09 -43.84,-22.18 -80.04,-49.87 -108.59,-84.96l0 467.12 -167.71 0zm152.42 -840.03c0,121.85 26.7,212.31 76.22,271.38 51.48,59.07 114.32,88.61 186.71,88.61 74.3,0 139.1,-31.39 190.53,-92.32 53.39,-60.92 80.03,-155.08 80.03,-282.44 0,-121.91 -24.73,-212.36 -78.12,-273.29 -51.43,-60.92 -112.42,-90.46 -184.8,-90.46 -70.54,0 -133.37,31.39 -188.68,96.02 -55.19,64.63 -81.89,158.79 -81.89,282.5zm906.97 472.63m0 0l0 -1321.92 167.71 0 0 476.33c78.13,-88.67 175.3,-132.96 295.3,-132.96 72.45,0 135.27,12.91 188.61,42.5 55.25,27.69 93.36,66.43 116.24,114.45 22.88,49.86 34.28,121.85 34.28,214.15l0 607.46 -167.65 0 0 -605.6c0,-81.26 -17.2,-140.32 -53.34,-177.21 -36.19,-36.95 -87.68,-55.43 -154.39,-55.43 -47.61,0 -95.27,12.92 -139.04,36.95 -41.87,25.83 -74.31,59.08 -91.45,101.53 -19.05,42.51 -28.55,101.58 -28.55,177.27l0 522.49 -167.71 0zm1002.29 0m703.05 -120c-62.89,51.66 -121.96,86.75 -179.12,108.93 -57.16,20.27 -120.05,31.39 -184.85,31.39 -108.59,0 -192.44,-25.88 -251.46,-77.54 -59.07,-49.87 -87.62,-116.36 -87.62,-195.75 0,-46.16 11.41,-90.46 32.37,-129.2 22.82,-38.8 51.37,-68.34 87.63,-92.31 36.19,-24.04 76.21,-40.66 120.06,-53.57 34.22,-7.36 83.8,-16.63 150.51,-23.98 135.27,-14.77 234.37,-33.24 299.12,-55.43 0,-22.12 0,-36.89 0,-42.45 0,-66.48 -15.24,-112.64 -47.67,-138.46 -41.87,-36.95 -106.68,-55.37 -190.53,-55.37 -79.98,0 -137.13,12.92 -175.24,40.6 -38.11,25.83 -64.8,73.84 -83.8,142.17l-163.89 -22.18c15.23,-68.28 39.96,-123.71 74.31,-164.3 34.28,-42.45 83.86,-73.84 148.59,-97.87 64.81,-22.13 139.11,-33.24 224.88,-33.24 83.86,0 152.36,9.26 205.76,29.53 53.34,18.48 91.45,42.51 116.23,72.05 24.73,29.53 41.88,66.43 53.34,110.79 5.74,27.68 7.65,77.55 7.65,149.53l0 214.16c0,151.38 3.82,245.55 11.41,286.2 5.73,40.6 19.05,79.35 40.02,116.3l-175.3 0c-17.14,-35.1 -26.7,-73.85 -32.38,-120zm-13.37 -360.05c-60.99,24.03 -152.43,44.3 -274.34,60.92 -68.63,9.27 -118.14,20.33 -146.74,31.39 -28.55,12.92 -49.52,29.54 -66.66,53.58 -15.23,22.12 -22.94,48.01 -22.94,75.69 0,44.31 17.2,79.4 51.49,108.94 34.28,27.68 83.86,42.45 148.66,42.45 64.75,0 121.91,-12.91 171.41,-40.6 51.49,-27.74 87.69,-64.63 110.56,-112.64 19.06,-35.1 28.56,-90.47 28.56,-160.65l0 -59.07zm426.81 480.04m0 0l0 -958.23 150.57 0 0 136.62c72.39,-105.24 177.21,-156.94 314.35,-156.94 59.07,0 114.38,11.11 163.89,31.39 49.57,20.32 87.62,48.01 112.41,81.25 24.79,33.24 41.93,73.84 51.43,120 5.73,29.54 9.55,83.11 9.55,156.94l0 588.98 -167.71 0 0 -581.57c0,-66.48 -5.67,-116.35 -18.99,-149.58 -13.38,-31.39 -36.2,-59.08 -68.63,-77.55 -34.29,-20.27 -72.45,-29.54 -118.15,-29.54 -70.48,0 -131.46,22.18 -182.88,66.49 -51.49,42.45 -78.13,125.56 -78.13,249.26l0 522.49 -167.71 0zm964.18 0m459.19 -145.88l22.87 144.02c-47.66,9.27 -89.59,14.77 -125.79,14.77 -60.92,0 -108.59,-9.21 -140.95,-27.68 -34.29,-18.48 -57.22,-44.31 -70.54,-73.84 -13.32,-31.39 -20.97,-94.17 -20.97,-192.04l0 -552.03 -123.82 0 0 -125.56 123.82 0 0 -236.34 167.72 -97.82 0 334.16 167.65 0 0 125.56 -167.65 0 0 561.3c0,46.15 3.82,75.69 9.49,88.61 5.74,14.76 15.23,23.97 28.56,33.24 13.37,7.35 32.37,11.06 57.22,11.06 17.14,0 41.87,-1.85 72.39,-7.41zm746.9 145.88m0 0l0 -1321.92 181.03 0 0 1321.92 -181.03 0zm478.29 0m0 0l0 -958.23 150.52 0 0 136.62c72.39,-105.24 177.2,-156.94 314.35,-156.94 59.07,0 114.38,11.11 163.89,31.39 49.57,20.32 87.62,48.01 112.41,81.25 24.79,33.24 41.93,73.84 51.43,120 5.73,29.54 9.55,83.11 9.55,156.94l0 588.98 -167.71 0 0 -581.57c0,-66.48 -5.67,-116.35 -18.99,-149.58 -13.38,-31.39 -36.2,-59.08 -68.63,-77.55 -34.29,-20.27 -72.4,-29.54 -118.15,-29.54 -70.48,0 -131.46,22.18 -182.89,66.49 -51.42,42.45 -78.12,125.56 -78.12,249.26l0 522.49 -167.66 0zm992.68 0m0 -286.15l165.8 -25.89c9.5,64.63 36.2,112.64 78.13,147.73 41.87,35.04 102.91,51.66 179.12,51.66 76.16,0 133.31,-14.77 171.42,-46.16 36.25,-29.53 55.31,-64.63 55.31,-107.08 0,-35.1 -17.15,-64.64 -49.58,-84.91 -24.79,-14.76 -81.89,-33.24 -171.47,-55.42 -123.88,-29.54 -207.73,-55.37 -255.34,-77.55 -47.66,-22.12 -83.8,-53.51 -108.59,-92.32 -22.88,-36.89 -36.2,-81.19 -36.2,-127.35 0,-42.51 9.5,-81.26 30.52,-118.2 20.91,-36.9 47.61,-66.49 81.89,-90.47 26.7,-18.47 60.99,-35.09 106.74,-48.01 45.7,-12.91 93.36,-18.47 144.78,-18.47 76.21,0 144.83,11.11 203.85,33.24 59.07,20.33 101,49.86 129.6,86.81 26.64,36.9 47.61,86.76 57.11,149.53l-163.83 22.12c-7.59,-49.8 -28.61,-88.61 -64.75,-116.29 -34.29,-29.54 -85.78,-42.45 -150.57,-42.45 -76.16,0 -131.46,12.91 -163.83,36.89 -32.44,24.03 -49.58,53.57 -49.58,86.81 0,20.27 7.65,38.75 20.97,57.22 13.32,16.63 34.34,31.39 62.89,42.46 17.15,5.56 66.72,20.32 148.66,40.65 118.09,31.39 200.03,57.22 247.63,75.7 47.67,20.27 83.86,48.01 110.51,84.9 26.75,36.95 40.07,83.11 40.07,138.47 0,53.57 -15.23,105.23 -49.57,153.23 -32.38,48.01 -78.13,84.96 -140.96,110.79 -60.98,25.89 -129.6,38.8 -207.67,38.8 -127.7,0 -226.78,-25.88 -293.5,-77.54 -68.57,-51.72 -110.5,-127.42 -129.55,-228.93zm924.11 286.15m459.19 -145.88l22.87 144.02c-47.66,9.27 -89.59,14.77 -125.73,14.77 -60.99,0 -108.65,-9.21 -141.01,-27.68 -34.29,-18.48 -57.22,-44.31 -70.54,-73.84 -13.32,-31.39 -20.97,-94.17 -20.97,-192.04l0 -552.03 -123.82 0 0 -125.56 123.82 0 0 -236.34 167.71 -97.82 0 334.16 167.66 0 0 125.56 -167.66 0 0 561.3c0,46.15 3.82,75.69 9.5,88.61 5.73,14.76 15.23,23.97 28.55,33.24 13.38,7.35 32.43,11.06 57.22,11.06 17.14,0 41.87,-1.85 72.4,-7.41zm165.74 145.88m0 -1137.3l0 -184.62 167.71 0 0 184.62 -167.71 0zm0 1137.3l0 -958.23 167.71 0 0 958.23 -167.71 0zm327.73 0m459.18 -145.88l22.88 144.02c-47.66,9.27 -89.59,14.77 -125.73,14.77 -60.99,0 -108.59,-9.21 -141.01,-27.68 -34.29,-18.48 -57.17,-44.31 -70.55,-73.84 -13.32,-31.39 -20.96,-94.17 -20.96,-192.04l0 -552.03 -123.82 0 0 -125.56 123.82 0 0 -236.34 167.71 -97.82 0 334.16 167.65 0 0 125.56 -167.65 0 0 561.3c0,46.15 3.82,75.69 9.5,88.61 5.73,14.76 15.23,23.97 28.55,33.24 13.44,7.35 32.43,11.06 57.22,11.06 17.14,0 41.87,-1.85 72.39,-7.41zm161.92 145.88m649.78 0l0 -142.18c-76.22,108.94 -181.03,162.5 -312.5,162.5 -59.07,0 -112.41,-11.12 -163.89,-33.24 -49.46,-20.33 -87.62,-48.01 -112.35,-81.25 -22.88,-33.25 -40.02,-71.99 -51.43,-120 -5.74,-31.39 -9.62,-83.11 -9.62,-151.38l0 -592.69 167.72 0 0 529.91c0,84.9 3.82,142.17 9.49,171.7 11.47,42.46 34.35,75.7 68.63,99.68 32.38,24.03 74.31,36.95 125.74,36.95 49.57,0 97.18,-12.92 141.01,-36.95 43.78,-25.83 74.36,-59.08 93.36,-101.53 17.14,-44.3 26.7,-105.23 26.7,-188.33l0 -511.43 167.65 0 0 958.23 -150.51 0zm318.23 0m459.19 -145.88l22.87 144.02c-47.66,9.27 -89.59,14.77 -125.73,14.77 -60.98,0 -108.65,-9.21 -141.01,-27.68 -34.29,-18.48 -57.22,-44.31 -70.54,-73.84 -13.32,-31.39 -20.97,-94.17 -20.97,-192.04l0 -552.03 -123.82 0 0 -125.56 123.82 0 0 -236.34 167.71 -97.82 0 334.16 167.66 0 0 125.56 -167.66 0 0 561.3c0,46.15 3.83,75.69 9.5,88.61 5.74,14.76 15.23,23.97 28.55,33.24 13.38,7.35 32.44,11.06 57.22,11.06 17.15,0 41.88,-1.85 72.4,-7.41zm110.56 145.88m729.75 -310.19l173.33 22.18c-26.64,97.82 -78.07,173.51 -150.51,227.08 -74.31,53.51 -167.65,81.25 -281.98,81.25 -144.83,0 -259.16,-42.51 -342.96,-129.25 -85.77,-86.76 -127.64,-206.81 -127.64,-361.9 0,-160.59 41.87,-286.15 127.64,-374.76 85.71,-88.67 196.21,-132.96 333.46,-132.96 131.4,0 238.14,42.5 321.94,131.1 83.86,86.76 125.79,208.6 125.79,367.41 0,9.21 0,24.03 0,42.45l-737.34 0c5.68,105.29 36.2,184.62 91.45,241.9 55.25,55.37 123.82,83.05 207.67,83.05 60.93,0 112.41,-16.62 156.19,-48.01 43.9,-31.39 78.13,-81.2 102.97,-149.53zm-548.78 -260.32l550.69 0c-7.7,-81.25 -28.67,-140.31 -62.89,-180.91 -53.4,-62.78 -121.97,-94.17 -207.68,-94.17 -76.27,0 -141.01,23.98 -192.44,73.84 -53.39,49.86 -81.95,118.15 -87.68,201.24zm1400.5 570.51m0 -480.04c0,-175.42 51.43,-306.48 152.37,-393.23 85.77,-70.19 188.67,-105.28 310.59,-105.28 137.19,0 247.69,42.5 333.46,129.25 85.77,84.91 129.54,204.95 129.54,356.34 0,123.71 -19.05,219.72 -57.1,289.86 -38.17,70.19 -93.42,125.56 -165.8,164.35 -74.3,40.6 -152.42,59.07 -240.1,59.07 -137.14,0 -249.55,-42.51 -335.32,-129.25 -85.77,-84.91 -127.65,-208.6 -127.65,-371.11zm171.42 1.85c0,121.85 28.67,214.16 83.86,273.23 55.31,60.93 123.88,92.32 207.68,92.32 83.86,0 152.42,-31.39 209.64,-92.32 55.19,-60.92 81.95,-153.23 81.95,-278.79 0,-118.15 -28.61,-208.6 -83.86,-269.53 -55.31,-60.92 -123.88,-90.46 -207.73,-90.46 -83.81,0 -152.37,29.54 -207.68,90.46 -55.19,60.93 -83.86,151.38 -83.86,275.09zm842.23 478.19m148.65 0l0 -832.68 -148.65 0 0 -125.56 148.65 0 0 -101.52c0,-64.63 5.68,-112.65 17.15,-144.03 17.08,-40.59 43.84,-75.69 85.71,-101.58 40.02,-25.83 97.18,-38.74 169.62,-38.74 47.61,0 99.04,5.56 156.19,16.62l-24.79 142.17c-34.28,-5.56 -66.72,-9.27 -99.09,-9.27 -49.46,0 -85.71,11.12 -106.68,31.39 -20.96,20.33 -32.37,59.08 -32.37,116.35l0 88.61 192.44 0 0 125.56 -190.53 0 0 832.68 -167.66 0z"/>
   <path class="fil1" d="M280.41 9380.66m0 0l0 -1321.92 270.57 0 322 936.04c30.52,86.76 51.49,151.38 66.72,195.69 15.23,-48.02 39.96,-120 72.39,-212.31l327.73 -919.42 241.96 0 0 1321.92 -173.39 0 0 -1105.91 -398.2 1105.91 -161.98 0 -394.38 -1126.24 0 1126.24 -173.39 0zm1512.85 0m703.06 -120c-62.84,51.66 -121.97,86.76 -179.06,108.94 -57.22,20.27 -120.12,31.39 -184.86,31.39 -108.65,0 -192.5,-25.89 -251.51,-77.55 -59.07,-49.87 -87.63,-116.35 -87.63,-195.74 0,-46.16 11.41,-90.47 32.38,-129.2 22.87,-38.81 51.43,-68.34 87.62,-92.32 36.26,-24.03 76.22,-40.66 120.12,-53.57 34.23,-7.36 83.74,-16.62 150.45,-23.98 135.34,-14.77 234.43,-33.24 299.12,-55.42 0,-22.13 0,-36.89 0,-42.45 0,-66.49 -15.23,-112.65 -47.6,-138.47 -41.94,-36.95 -106.68,-55.37 -190.53,-55.37 -80.04,0 -137.19,12.92 -175.3,40.6 -38.11,25.83 -64.81,73.84 -83.81,142.17l-163.88 -22.18c15.23,-68.28 40.01,-123.7 74.3,-164.29 34.29,-42.45 83.86,-73.84 148.66,-97.88 64.75,-22.12 139.04,-33.24 224.81,-33.24 83.86,0 152.42,9.26 205.76,29.53 53.4,18.48 91.45,42.51 116.24,72.05 24.79,29.54 41.93,66.43 53.34,110.79 5.73,27.69 7.64,77.55 7.64,149.53l0 214.16c0,151.38 3.83,245.55 11.41,286.2 5.74,40.6 19.06,79.35 40.08,116.3l-175.3 0c-17.14,-35.1 -26.76,-73.84 -32.43,-120zm-13.38 -360.05c-60.93,24.04 -152.36,44.31 -274.33,60.93 -68.57,9.26 -118.15,20.33 -146.69,31.39 -28.55,12.91 -49.57,29.53 -66.72,53.57 -15.23,22.12 -22.87,48.01 -22.87,75.69 0,44.31 17.14,79.4 51.42,108.94 34.35,27.69 83.87,42.45 148.66,42.45 64.81,0 121.91,-12.91 171.48,-40.6 51.43,-27.74 87.68,-64.63 110.5,-112.64 19.05,-35.1 28.55,-90.46 28.55,-160.65l0 -59.07zm426.87 480.04m0 0l0 -958.22 150.51 0 0 136.61c72.4,-105.23 177.21,-156.94 314.41,-156.94 59.02,0 114.33,11.12 163.83,31.39 49.58,20.33 87.63,48.01 112.47,81.25 24.73,33.25 41.88,73.84 51.37,120 5.74,29.54 9.56,83.11 9.56,156.94l0 588.98 -167.71 0 0 -581.56c0,-66.49 -5.68,-116.36 -19,-149.59 -13.38,-31.39 -36.19,-59.07 -68.57,-77.55 -34.34,-20.27 -72.45,-29.53 -118.2,-29.53 -70.43,0 -131.46,22.18 -182.89,66.48 -51.43,42.45 -78.07,125.56 -78.07,249.26l0 522.49 -167.71 0zm1002.23 0m703.12 -120c-62.9,51.66 -121.97,86.76 -179.12,108.94 -57.22,20.27 -120.06,31.39 -184.86,31.39 -108.59,0 -192.44,-25.89 -251.51,-77.55 -59.02,-49.87 -87.63,-116.35 -87.63,-195.74 0,-46.16 11.47,-90.47 32.44,-129.2 22.82,-38.81 51.37,-68.34 87.62,-92.32 36.2,-24.03 76.16,-40.66 120.06,-53.57 34.23,-7.36 83.8,-16.62 150.51,-23.98 135.28,-14.77 234.37,-33.24 299.12,-55.42 0,-22.13 0,-36.89 0,-42.45 0,-66.49 -15.23,-112.65 -47.66,-138.47 -41.88,-36.95 -106.68,-55.37 -190.53,-55.37 -80.04,0 -137.14,12.92 -175.3,40.6 -38.05,25.83 -64.75,73.84 -83.8,142.17l-163.84 -22.18c15.24,-68.28 39.97,-123.7 74.25,-164.29 34.35,-42.45 83.86,-73.84 148.66,-97.88 64.81,-22.12 139.1,-33.24 224.81,-33.24 83.86,0 152.43,9.26 205.82,29.53 53.34,18.48 91.45,42.51 116.24,72.05 24.73,29.54 41.87,66.43 53.28,110.79 5.73,27.69 7.7,77.55 7.7,149.53l0 214.16c0,151.38 3.83,245.55 11.41,286.2 5.74,40.6 19.06,79.35 40.02,116.3l-175.3 0c-17.14,-35.1 -26.7,-73.84 -32.37,-120zm-13.38 -360.05c-60.98,24.04 -152.42,44.31 -274.33,60.93 -68.63,9.26 -118.15,20.33 -146.75,31.39 -28.55,12.91 -49.52,29.53 -66.66,53.57 -15.29,22.12 -22.93,48.01 -22.93,75.69 0,44.31 17.14,79.4 51.48,108.94 34.29,27.69 83.86,42.45 148.6,42.45 64.81,0 121.97,-12.91 171.48,-40.6 51.49,-27.74 87.68,-64.63 110.5,-112.64 19.11,-35.1 28.61,-90.46 28.61,-160.65l0 -59.07zm362.07 480.04m34.29 79.4l161.98 22.12c5.73,48.01 24.73,84.96 57.1,107.09 41.99,29.59 97.18,44.36 169.62,44.36 78.13,0 137.14,-14.77 180.98,-44.36 41.93,-29.54 70.54,-71.99 85.77,-125.5 7.59,-33.25 11.41,-103.44 11.41,-208.66 -74.31,83.11 -163.89,125.56 -274.39,125.56 -135.22,0 -240.05,-48.01 -314.35,-142.17 -76.22,-96.03 -112.42,-208.6 -112.42,-341.58 0,-92.31 17.15,-175.35 51.43,-252.9 34.29,-77.55 83.86,-136.61 148.66,-179.12 64.75,-42.45 140.95,-62.78 228.58,-62.78 116.23,0 211.49,46.16 287.71,138.46l0 -118.14 154.39 0 0 827.11c0,149.58 -15.23,254.81 -47.66,317.59 -30.52,62.78 -80.04,110.8 -148.6,147.68 -66.72,35.09 -150.57,53.57 -249.61,53.57 -118.14,0 -213.4,-25.83 -285.85,-77.55 -72.4,-49.86 -106.68,-127.41 -104.77,-230.78zm137.13 -574.21c0,123.71 24.85,216.02 76.28,273.24 53.34,57.27 116.17,86.81 194.29,86.81 78.18,0 141.07,-29.54 194.35,-86.81 51.49,-57.22 78.13,-145.82 78.13,-269.53 0,-116.35 -26.64,-204.95 -80.04,-264.03 -55.19,-59.07 -120,-88.61 -194.29,-88.61 -74.37,0 -139.1,29.54 -190.53,86.76 -51.43,59.07 -78.19,145.88 -78.19,262.17zm897.53 494.81m729.75 -310.18l173.33 22.18c-26.64,97.82 -78.07,173.5 -150.51,227.07 -74.31,53.52 -167.65,81.26 -281.98,81.26 -144.83,0 -259.16,-42.51 -342.96,-129.26 -85.77,-86.76 -127.64,-206.8 -127.64,-361.9 0,-160.59 41.87,-286.15 127.64,-374.76 85.71,-88.67 196.21,-132.96 333.46,-132.96 131.4,0 238.14,42.51 321.94,131.11 83.86,86.75 125.85,208.6 125.85,367.4 0,9.21 0,24.04 0,42.45l-737.4 0c5.68,105.29 36.2,184.63 91.45,241.9 55.25,55.37 123.82,83.05 207.67,83.05 60.99,0 112.41,-16.62 156.25,-48.01 43.84,-31.39 78.06,-81.19 102.91,-149.52zm-548.78 -260.32l550.69 0c-7.64,-81.26 -28.67,-140.32 -62.89,-180.92 -53.4,-62.78 -121.97,-94.17 -207.68,-94.17 -76.27,0 -141.01,23.98 -192.44,73.84 -53.4,49.87 -81.95,118.15 -87.68,201.25zm933.66 570.5m0 0l0 -958.22 150.51 0 0 134.75c30.52,-46.15 72.4,-84.9 123.88,-112.58 51.43,-27.74 110.5,-42.51 175.24,-42.51 72.4,0 133.43,14.77 179.12,44.3 47.67,29.6 80.04,70.2 99.04,123.71 80.04,-112.59 181.03,-168 306.82,-168 99.09,0 175.3,25.89 226.73,79.4 53.39,51.72 80.04,132.96 80.04,241.9l0 657.25 -167.66 0 0 -603.75c0,-64.63 -5.73,-110.79 -17.14,-140.31 -9.56,-27.69 -30.46,-49.87 -59.13,-68.29 -28.55,-16.62 -60.93,-25.88 -100.95,-25.88 -68.57,0 -127.64,22.18 -173.38,66.48 -45.76,46.16 -68.58,116.3 -68.58,216.02l0 555.73 -167.71 0 0 -622.22c0,-71.99 -13.32,-125.56 -39.96,-162.44 -28.61,-35.1 -72.45,-53.57 -135.34,-53.57 -45.69,0 -89.53,11.12 -129.54,35.09 -40.02,23.98 -68.57,59.08 -87.63,107.09 -17.14,46.16 -26.64,112.64 -26.64,199.39l0 496.66 -167.71 0zm1531.9 0m729.76 -310.18l173.33 22.18c-26.64,97.82 -78.07,173.5 -150.51,227.07 -74.31,53.52 -167.66,81.26 -281.98,81.26 -144.83,0 -259.16,-42.51 -342.96,-129.26 -85.77,-86.76 -127.65,-206.8 -127.65,-361.9 0,-160.59 41.88,-286.15 127.65,-374.76 85.71,-88.67 196.2,-132.96 333.46,-132.96 131.4,0 238.14,42.51 321.94,131.11 83.86,86.75 125.85,208.6 125.85,367.4 0,9.21 0,24.04 0,42.45l-737.4 0c5.68,105.29 36.2,184.63 91.45,241.9 55.25,55.37 123.82,83.05 207.67,83.05 60.98,0 112.41,-16.62 156.24,-48.01 43.85,-31.39 78.07,-81.19 102.92,-149.52zm-548.78 -260.32l550.69 0c-7.64,-81.26 -28.67,-140.32 -62.89,-180.92 -53.4,-62.78 -121.97,-94.17 -207.68,-94.17 -76.27,0 -141.01,23.98 -192.44,73.84 -53.4,49.87 -81.95,118.15 -87.68,201.25zm933.66 570.5m0 0l0 -958.22 150.51 0 0 136.61c72.4,-105.23 177.21,-156.94 314.41,-156.94 59.02,0 114.33,11.12 163.83,31.39 49.58,20.33 87.63,48.01 112.47,81.25 24.73,33.25 41.88,73.84 51.37,120 5.74,29.54 9.56,83.11 9.56,156.94l0 588.98 -167.71 0 0 -581.56c0,-66.49 -5.68,-116.36 -19,-149.59 -13.38,-31.39 -36.19,-59.07 -68.57,-77.55 -34.34,-20.27 -72.45,-29.53 -118.2,-29.53 -70.43,0 -131.46,22.18 -182.89,66.48 -51.43,42.45 -78.07,125.56 -78.07,249.26l0 522.49 -167.71 0zm964.13 0m459.18 -145.88l22.88 144.02c-47.61,9.27 -89.59,14.77 -125.73,14.77 -60.99,0 -108.59,-9.21 -141.02,-27.68 -34.28,-18.47 -57.16,-44.31 -70.54,-73.84 -13.32,-31.39 -20.96,-94.17 -20.96,-192.04l0 -552.02 -123.82 0 0 -125.56 123.82 0 0 -236.35 167.71 -97.81 0 334.16 167.65 0 0 125.56 -167.65 0 0 561.29c0,46.16 3.82,75.69 9.5,88.61 5.73,14.77 15.23,23.98 28.55,33.24 13.44,7.36 32.43,11.06 57.22,11.06 17.14,0 41.87,-1.85 72.39,-7.41zm720.26 145.88m0 0l0 -1321.92 985.09 0 0 155.09 -804.12 0 0 406.13 752.64 0 0 155.09 -752.64 0 0 450.5 836.5 0 0 155.09 -1017.47 0zm1183.21 0m701.14 0l0 -121.85c-62.83,94.16 -154.27,142.17 -276.3,142.17 -78.07,0 -150.45,-20.33 -217.17,-62.78 -64.81,-42.51 -116.23,-101.59 -152.36,-175.42 -36.26,-75.69 -55.31,-162.44 -55.31,-260.32 0,-96.02 17.14,-182.77 49.57,-260.31 32.38,-77.55 81.89,-136.62 148.6,-177.27 64.81,-42.45 139.1,-62.78 219.08,-62.78 59.08,0 112.47,12.91 160.07,36.95 45.75,23.97 83.86,55.36 112.41,94.17l0 -474.48 167.66 0 0 1321.92 -156.25 0zm-529.67 -478.19c0,121.86 26.7,214.16 80.04,275.09 53.34,60.93 116.24,90.46 190.53,90.46 72.4,0 135.28,-29.53 186.77,-86.75 51.37,-57.22 76.16,-145.88 76.16,-265.88 0,-129.26 -26.65,-225.22 -78.07,-286.15 -51.49,-62.78 -116.3,-92.32 -192.45,-92.32 -76.21,0 -137.24,29.54 -188.61,88.61 -49.58,57.22 -74.37,151.38 -74.37,276.94zm946.99 478.19m649.77 0l0 -142.17c-76.27,108.94 -181.03,162.5 -312.56,162.5 -59.01,0 -112.41,-11.12 -163.83,-33.25 -49.51,-20.32 -87.62,-48.01 -112.35,-81.25 -22.94,-33.24 -40.08,-71.99 -51.49,-120 -5.73,-31.39 -9.55,-83.11 -9.55,-151.38l0 -592.68 167.71 0 0 529.9c0,84.9 3.82,142.17 9.5,171.71 11.46,42.45 34.28,75.69 68.57,99.67 32.43,24.03 74.3,36.95 125.79,36.95 49.52,0 97.18,-12.92 140.95,-36.95 43.84,-25.83 74.37,-59.07 93.36,-101.53 17.14,-44.3 26.76,-105.23 26.76,-188.33l0 -511.42 167.59 0 0 958.22 -150.45 0zm363.93 0m695.47 -350.78l163.83 22.12c-17.2,108.94 -62.9,193.89 -137.19,256.67 -74.31,60.93 -165.8,92.32 -272.48,92.32 -135.22,0 -243.87,-42.51 -325.82,-129.26 -81.89,-84.9 -123.82,-206.8 -123.82,-367.4 0,-103.38 17.14,-192.04 53.34,-269.59 34.34,-77.55 89.53,-136.61 161.98,-175.35 70.48,-38.81 150.45,-57.28 234.31,-57.28 106.68,0 196.26,25.89 262.98,79.4 68.57,51.72 112.35,127.41 131.46,223.43l-161.98 23.97c-15.23,-64.63 -41.93,-112.64 -81.89,-145.82 -40.02,-31.39 -87.69,-48.01 -142.93,-48.01 -85.71,0 -154.33,29.54 -205.82,86.76 -53.28,59.07 -80.03,151.38 -80.03,278.79 0,129.26 24.84,221.57 76.27,280.65 51.43,57.22 118.09,86.75 200.03,86.75 64.8,0 120.11,-20.27 163.89,-59.07 43.84,-38.74 72.39,-97.88 83.86,-179.06zm249.6 350.78m703.06 -120c-62.9,51.66 -121.97,86.76 -179.12,108.94 -57.17,20.27 -120.06,31.39 -184.86,31.39 -108.59,0 -192.44,-25.89 -251.46,-77.55 -59.07,-49.87 -87.62,-116.35 -87.62,-195.74 0,-46.16 11.41,-90.47 32.37,-129.2 22.82,-38.81 51.37,-68.34 87.63,-92.32 36.2,-24.03 76.22,-40.66 120.06,-53.57 34.22,-7.36 83.8,-16.62 150.51,-23.98 135.28,-14.77 234.37,-33.24 299.12,-55.42 0,-22.13 0,-36.89 0,-42.45 0,-66.49 -15.23,-112.65 -47.67,-138.47 -41.87,-36.95 -106.68,-55.37 -190.53,-55.37 -79.98,0 -137.13,12.92 -175.24,40.6 -38.1,25.83 -64.8,73.84 -83.8,142.17l-163.89 -22.18c15.23,-68.28 39.96,-123.7 74.31,-164.29 34.28,-42.45 83.86,-73.84 148.6,-97.88 64.8,-22.12 139.1,-33.24 224.87,-33.24 83.86,0 152.36,9.26 205.76,29.53 53.34,18.48 91.45,42.51 116.24,72.05 24.73,29.54 41.87,66.43 53.33,110.79 5.74,27.69 7.65,77.55 7.65,149.53l0 214.16c0,151.38 3.82,245.55 11.41,286.2 5.73,40.6 19.05,79.35 40.02,116.3l-175.3 0c-17.14,-35.1 -26.7,-73.84 -32.37,-120zm-13.38 -360.05c-60.99,24.04 -152.42,44.31 -274.34,60.93 -68.62,9.26 -118.14,20.33 -146.74,31.39 -28.55,12.91 -49.52,29.53 -66.66,53.57 -15.23,22.12 -22.94,48.01 -22.94,75.69 0,44.31 17.21,79.4 51.49,108.94 34.29,27.69 83.86,42.45 148.66,42.45 64.75,0 121.91,-12.91 171.42,-40.6 51.48,-27.74 87.68,-64.63 110.56,-112.64 19.05,-35.1 28.55,-90.46 28.55,-160.65l0 -59.07zm331.55 480.04m459.19 -145.88l22.93 144.02c-47.66,9.27 -89.59,14.77 -125.79,14.77 -60.93,0 -108.59,-9.21 -140.96,-27.68 -34.34,-18.47 -57.22,-44.31 -70.54,-73.84 -13.32,-31.39 -20.96,-94.17 -20.96,-192.04l0 -552.02 -123.88 0 0 -125.56 123.88 0 0 -236.35 167.71 -97.81 0 334.16 167.6 0 0 125.56 -167.6 0 0 561.29c0,46.16 3.82,75.69 9.5,88.61 5.73,14.77 15.23,23.98 28.55,33.24 13.38,7.36 32.38,11.06 57.22,11.06 17.14,0 41.87,-1.85 72.34,-7.41zm165.8 145.88m0 -1137.3l0 -184.62 167.71 0 0 184.62 -167.71 0zm0 1137.3l0 -958.22 167.71 0 0 958.22 -167.71 0zm360.1 0m0 -480.04c0,-175.41 51.43,-306.48 152.36,-393.22 85.78,-70.2 188.68,-105.29 310.65,-105.29 137.13,0 247.63,42.51 333.41,129.25 85.77,84.91 129.6,204.96 129.6,356.35 0,123.7 -19.11,219.72 -57.16,289.85 -38.11,70.19 -93.42,125.56 -165.8,164.35 -74.25,40.6 -152.37,59.08 -240.05,59.08 -137.19,0 -249.6,-42.51 -335.38,-129.26 -85.77,-84.9 -127.64,-208.6 -127.64,-371.11zm171.48 1.85c0,121.86 28.61,214.16 83.86,273.24 55.25,60.92 123.82,92.31 207.67,92.31 83.86,0 152.36,-31.39 209.58,-92.31 55.25,-60.93 81.95,-153.24 81.95,-278.8 0,-118.14 -28.55,-208.6 -83.86,-269.52 -55.31,-60.93 -123.82,-90.47 -207.67,-90.47 -83.86,0 -152.42,29.54 -207.67,90.47 -55.25,60.92 -83.86,151.38 -83.86,275.08zm950.8 478.19m0 0l0 -958.22 150.51 0 0 136.61c72.4,-105.23 177.21,-156.94 314.41,-156.94 59.02,0 114.33,11.12 163.83,31.39 49.58,20.33 87.63,48.01 112.47,81.25 24.73,33.25 41.88,73.84 51.37,120 5.74,29.54 9.56,83.11 9.56,156.94l0 588.98 -167.71 0 0 -581.56c0,-66.49 -5.68,-116.36 -19,-149.59 -13.38,-31.39 -36.19,-59.07 -68.57,-77.55 -34.34,-20.27 -72.45,-29.53 -118.2,-29.53 -70.43,0 -131.46,22.18 -182.89,66.48 -51.43,42.45 -78.07,125.56 -78.07,249.26l0 522.49 -167.71 0zm1610.09 0m0 0l0 -1321.92 514.44 0c91.44,0 160.06,3.65 207.67,12.91 68.57,11.07 123.88,31.39 169.56,60.93 45.76,31.39 81.95,73.84 108.59,127.41 28.61,55.37 41.93,114.44 41.93,180.92 0,110.79 -36.19,206.75 -110.5,284.3 -74.3,77.54 -207.73,116.35 -400.17,116.35l-350.55 0 0 539.11 -180.97 0zm180.97 -694.2l352.46 0c116.3,0 200.15,-20.33 249.66,-62.78 47.67,-42.45 72.4,-101.52 72.4,-179.06 0,-53.57 -13.32,-101.59 -43.84,-140.32 -28.56,-40.66 -66.66,-66.49 -112.42,-79.4 -30.46,-7.42 -87.68,-11.06 -169.56,-11.06l-348.7 0 0 472.62zm966.04 694.2m373.43 0l-373.43 -958.22 179.06 0 211.5 574.2c22.87,60.93 43.84,125.56 64.8,191.98 13.33,-49.8 34.29,-110.73 60.93,-180.91l221.05 -585.27 171.54 0 -373.49 958.22 -161.97 0zm586.83 0m459.18 -145.88l22.88 144.02c-47.61,9.27 -89.6,14.77 -125.73,14.77 -60.99,0 -108.59,-9.21 -141.02,-27.68 -34.28,-18.47 -57.16,-44.31 -70.48,-73.84 -13.32,-31.39 -21.02,-94.17 -21.02,-192.04l0 -552.02 -123.82 0 0 -125.56 123.82 0 0 -236.35 167.71 -97.81 0 334.16 167.65 0 0 125.56 -167.65 0 0 561.29c0,46.16 3.82,75.69 9.5,88.61 5.73,14.77 15.23,23.98 28.61,33.24 13.38,7.36 32.37,11.06 57.16,11.06 17.14,0 41.93,-1.85 72.39,-7.41zm213.41 145.88m0 0l0 -184.62 190.53 0 0 184.62 -190.53 0zm1025.11 0m0 0l0 -1321.92 181.03 0 0 1166.82 670.68 0 0 155.09 -851.72 0zm950.8 0m459.19 -145.88l22.88 144.02c-47.61,9.27 -89.6,14.77 -125.74,14.77 -60.98,0 -108.59,-9.21 -141.01,-27.68 -34.28,-18.47 -57.16,-44.31 -70.48,-73.84 -13.32,-31.39 -21.02,-94.17 -21.02,-192.04l0 -552.02 -123.83 0 0 -125.56 123.83 0 0 -236.35 167.71 -97.81 0 334.16 167.65 0 0 125.56 -167.65 0 0 561.29c0,46.16 3.82,75.69 9.5,88.61 5.73,14.77 15.29,23.98 28.61,33.24 13.37,7.36 32.37,11.06 57.16,11.06 17.14,0 41.93,-1.85 72.39,-7.41zm102.92 145.88m701.2 0l0 -121.85c-62.9,94.16 -154.33,142.17 -276.3,142.17 -78.13,0 -150.51,-20.33 -217.23,-62.78 -64.75,-42.51 -116.24,-101.59 -152.37,-175.42 -36.25,-75.69 -55.3,-162.44 -55.3,-260.32 0,-96.02 17.14,-182.77 49.57,-260.31 32.38,-77.55 81.95,-136.62 148.6,-177.27 64.81,-42.45 139.1,-62.78 219.14,-62.78 59.02,0 112.41,12.91 160.01,36.95 45.75,23.97 83.86,55.36 112.41,94.17l0 -474.48 167.65 0 0 1321.92 -156.18 0zm-529.73 -478.19c0,121.86 26.7,214.16 80.04,275.09 53.34,60.93 116.23,90.46 190.53,90.46 72.45,0 135.28,-29.53 186.76,-86.75 51.38,-57.22 76.22,-145.88 76.22,-265.88 0,-129.26 -26.7,-225.22 -78.13,-286.15 -51.48,-62.78 -116.23,-92.32 -192.44,-92.32 -76.21,0 -137.25,29.54 -188.62,88.61 -49.57,57.22 -74.36,151.38 -74.36,276.94zm998.47 478.19m0 0l0 -184.62 190.53 0 0 184.62 -190.53 0z"/>
  </g>
 </g>
</svg>
