<svg width="800" height="800" viewBox="0 0 800 800" fill="none" xmlns="http://www.w3.org/2000/svg">
<path fill-rule="evenodd" clip-rule="evenodd" d="M666.666 552.381V285.714L476.19 95.2383H285.714C243.635 95.2383 209.523 129.35 209.523 171.429V552.381C209.523 594.46 243.635 628.572 285.714 628.572H590.476C632.555 628.572 666.666 594.46 666.666 552.381Z" stroke="black" stroke-width="38.0952" stroke-linecap="round" stroke-linejoin="round"/>
<path d="M476.19 95.2383V209.524C476.19 251.603 510.302 285.714 552.381 285.714H666.666M209.523 171.429C167.445 171.429 133.333 205.54 133.333 247.619V628.572C133.333 670.65 167.445 704.762 209.523 704.762H514.285C556.364 704.762 590.476 670.65 590.476 628.572" stroke="black" stroke-width="38.0952" stroke-linecap="round" stroke-linejoin="round"/>
</svg>
