<svg width="512" height="512" viewBox="0 0 512 512" fill="none" xmlns="http://www.w3.org/2000/svg">
<g clip-path="url(#clip0_333_2106)">
<path d="M170.137 222.607H119.256V273.492H170.137V222.607Z" fill="black"/>
<path d="M392.743 222.607H341.862V273.492H392.743V222.607Z" fill="black"/>
<path d="M318.542 222.607H267.661V273.492H318.542V222.607Z" fill="black"/>
<path d="M170.137 302.11H119.256V352.995H170.137V302.11Z" fill="black"/>
<path d="M318.542 302.11H267.661V352.995H318.542V302.11Z" fill="black"/>
<path d="M244.341 302.11H193.46V352.995H244.341V302.11Z" fill="black"/>
<path d="M392.743 381.612H341.862V432.497H392.743V381.612Z" fill="black"/>
<path d="M318.542 381.612H267.661V432.497H318.542V381.612Z" fill="black"/>
<path d="M244.341 381.612H193.46V432.497H244.341V381.612Z" fill="black"/>
<path d="M439.277 55.0459H397.901V94.7159C397.901 109.518 385.706 121.556 370.718 121.556H316.693C301.705 121.556 289.511 109.518 289.511 94.7159V55.0459H222.417V94.3429C222.417 109.351 210.088 121.556 194.933 121.556H141.509C126.354 121.556 114.025 109.351 114.025 94.3429V55.0459H72.6485C45.7425 55.0459 23.8525 76.7379 23.8525 103.4V463.646C23.8525 490.307 45.7425 512 72.6485 512H439.277C466.224 512 488.147 490.308 488.147 463.646V103.4C488.147 76.7389 466.224 55.0459 439.277 55.0459ZM453.167 462.707C453.167 471.267 447.416 477.016 438.856 477.016H73.1435C64.5835 477.016 58.8325 471.267 58.8325 462.707V178.089H453.167V462.707Z" fill="black"/>
<path d="M141.524 102.507H194.916C199.437 102.507 203.115 98.854 203.115 94.363V20.493C203.115 9.193 193.845 0 182.449 0H153.99C142.595 0 133.322 9.192 133.322 20.493V94.363C133.323 98.854 137.001 102.507 141.524 102.507Z" fill="black"/>
<path d="M316.693 102.507H370.718C375.066 102.507 378.602 98.994 378.602 94.681V20.178C378.602 9.053 369.474 0 358.251 0H329.16C317.939 0 308.811 9.053 308.811 20.178V94.681C308.81 98.994 312.347 102.507 316.693 102.507Z" fill="black"/>
</g>
<defs>
<clipPath id="clip0_333_2106">
<rect width="512" height="512" fill="white"/>
</clipPath>
</defs>
</svg>
